<svg width="98" height="99" viewBox="0 0 98 99" fill="none" xmlns="http://www.w3.org/2000/svg">
<mask id="mask0_9_431" style="mask-type:alpha" maskUnits="userSpaceOnUse" x="-1" y="-1" width="99" height="100">
<path d="M96.5948 54.728C100.226 72.8365 79.5273 117.856 31.3477 88.8394H29.1607L0 25.4898L46.6571 0L89.3046 20.2419L96.5948 54.728Z" fill="#474646" stroke="black"/>
</mask>
<g mask="url(#mask0_9_431)">
<ellipse cx="59.5547" cy="63.6861" rx="37.7664" ry="38.0653" fill="#FFE6F7"/>
<path fill-rule="evenodd" clip-rule="evenodd" d="M156.634 64.6745C145.725 63.9486 135.317 67.3493 126.597 72.6496C115.359 79.481 105.834 89.2508 99.3872 99.5454C98.7014 99.9872 98.0257 100.44 97.3548 100.897C93.7665 103.343 90.2608 105.925 87.1534 108.8C85.4185 110.405 80.8681 114.306 82.8436 116.768C83.2628 117.29 83.9513 117.59 84.6409 117.797C86.5744 118.376 88.5898 118.669 90.4967 119.347C92.8506 120.183 95.2914 121.354 96.7995 123.139C97.2284 123.647 97.3402 124.246 97.9168 124.469C98.5282 124.707 99.6809 124.614 100.349 124.669C101.693 124.779 103.036 124.89 104.38 124.999C107.536 125.258 110.836 125.287 113.924 125.925L128.129 128.859C131.034 129.459 134.374 129.789 137.129 130.776C141.241 132.248 145.163 134.403 149.097 136.179C151 137.037 152.902 137.896 154.805 138.755C155.734 139.175 156.37 139.18 157.458 139.25L165.315 139.756C166.583 139.837 167.191 140.264 167.357 139.203L169.184 127.539L170.149 121.372C170.206 121.005 170.189 119.188 170.549 118.968C170.774 118.831 172.097 119.127 172.341 119.152L175.908 119.517C178.476 119.78 181.044 120.043 183.613 120.307C183.821 120.328 184.976 120.317 185.106 120.459C185.257 120.627 184.969 121.586 184.943 121.792C184.67 123.958 184.397 126.124 184.125 128.289C184.093 128.541 183.729 129.705 183.921 129.911C184.054 130.055 185.022 130.072 185.218 130.099C187.696 130.437 190.174 130.775 192.651 131.114C194.425 131.356 196.744 131.344 198.422 131.902C199.385 132.222 200.338 133.042 201.17 133.554L213.253 140.992C215.086 142.12 217.556 141.832 219.788 141.975L245.533 143.615C245.512 142.945 245.49 142.274 245.469 141.603C245.356 138.051 245.243 134.498 245.129 130.946L244.981 126.3C244.972 126.006 245.112 125.145 244.882 124.928C244.577 124.639 243.212 124.514 242.788 124.409C241.367 124.057 239.947 123.706 238.526 123.354C234.357 122.322 230.189 121.29 226.021 120.258C221.902 119.238 217.782 118.218 213.663 117.198C212.253 116.849 210.844 116.5 209.435 116.151C209.109 116.07 207.972 115.963 207.746 115.733C207.46 115.443 207.588 114.205 207.543 113.837C207.319 112.042 207 110.255 206.612 108.48C203.811 95.6782 197.265 82.6743 185.129 74.1338C177.106 68.4882 167.042 65.3669 156.634 64.6745ZM154.71 90.3471C155.79 89.2864 157.605 87.556 159.513 87.8433C161.063 88.0767 161.908 89.6848 162.449 90.7538C164.621 95.0503 165.295 99.9752 165.971 104.567C166.395 107.448 166.736 110.342 166.954 113.239C159.215 112.741 151.476 112.243 143.737 111.745C144.102 109.683 144.395 107.601 144.835 105.548C145.055 104.519 145.665 103.593 146.186 102.642C148.517 98.3906 151.062 93.9307 154.71 90.3471Z" fill="#2D033B"/>
<path fill-rule="evenodd" clip-rule="evenodd" d="M47.2813 6.58813L47.0921 6.59088C41.9563 6.70518 37.4273 9.46964 33.9146 12.3953C32.1777 13.8419 30.5937 15.5434 29.8483 17.5234C28.9876 19.8106 29.2708 22.3265 29.9257 24.622C31.3724 29.6949 33.1406 34.794 35.1289 39.738C36.1073 42.1701 37.526 44.5547 38.2644 47.0439C38.8731 49.0948 36.3096 50.5885 36.2115 52.6959C36.1126 54.822 37.8226 56.8193 40.1724 57.5791C41.1733 57.9027 42.3841 57.6324 43.3067 57.964C44.1505 58.2671 44.446 59.1617 44.608 59.8485C44.8287 60.7851 44.789 61.721 44.7263 62.666C44.6877 63.2441 44.86 64.1875 44.5228 64.7031C44.2912 65.0572 43.8693 65.173 43.5058 65.4153C43.0098 65.746 42.6793 66.1575 42.2442 66.5375C41.5271 67.1647 40.8372 67.5044 40.6425 68.4193C40.5388 68.2115 40.4352 68.0037 40.3318 67.7961C39.7972 68.614 39.401 69.0062 39.9093 69.7826C38.3324 69.6532 37.3981 72.0462 36.9847 72.9537C36.2276 74.6145 35.7076 76.3403 34.9488 78.002C33.9088 80.2804 32.5424 82.5288 31.8787 84.9128C31.3214 86.9165 30.8802 88.9744 30.3847 90.992C30.1056 92.1279 29.8624 93.2819 29.3517 94.365C29.1532 94.7856 28.7847 95.0687 28.5564 95.4436C28.2443 95.9567 28.3663 96.2278 28.3514 96.7898C28.3251 97.7916 27.5695 98.442 27.3319 99.4153C27.0781 100.455 26.8708 101.506 26.6148 102.548C26.0989 104.647 25.1432 106.743 24.9132 108.868C24.646 111.337 24.0729 113.775 23.7847 116.244C23.5325 118.402 23.9611 120.718 23.4224 122.805C22.9447 124.658 23.5368 126.352 23.7476 128.191C23.8011 128.658 22.9412 131.438 24.3231 130.905C24.0635 131.56 23.6998 131.872 23.6802 132.591C23.6621 133.264 23.8694 133.955 24.0387 134.608C24.3657 135.868 24.5835 137.241 25.2241 138.422C25.9485 139.757 27.0525 139.917 28.5532 140.376C29.5692 140.686 31.3987 141.793 32.1993 140.609C32.6767 141.824 33.6086 140.984 34.6533 140.916C34.6463 140.916 35.2513 141.103 35.3645 141.116C35.7318 141.158 36.166 141.013 36.5315 140.987C37.4428 140.924 38.3368 141.026 39.2282 141.18C41.2822 141.536 43.2693 142.029 45.3537 142.277C49.4252 142.761 53.4153 142.532 57.4927 142.745C65.4722 143.16 73.5837 142.811 81.5694 142.632C82.4266 142.612 83.3504 142.713 84.1962 142.602C85.1081 142.484 85.3069 142.123 86.0173 141.761C87.1983 141.161 88.5086 141.745 89.7338 141.964C93.3308 142.608 97.0873 142.656 100.713 143.279C108.079 144.544 114.867 147.041 121.923 149.148C124.982 150.061 128.572 151.54 131.871 151.605C135.868 151.676 134.924 148.383 134.189 146.265C136.499 146.778 140.126 149.122 142.474 147.762C145.272 146.141 141.712 143.447 141.544 141.542C146.545 142.41 152.217 144.314 157.293 142.766C158.27 142.469 159.12 141.839 160.168 141.737C161.258 141.63 162.41 141.952 163.512 141.947C166.022 141.933 168.46 141.654 170.969 141.913C176.564 142.489 182.08 142.804 187.72 142.929C193.399 143.054 199.077 143.335 204.758 143.323C207.641 143.317 210.578 143.031 213.456 143.16C214.586 143.21 217.018 143.896 217.812 142.936C218.609 143.735 219.286 143.201 220.308 143.29C220.119 143.273 220.841 143.623 220.949 143.656C221.487 143.823 221.989 143.773 222.551 143.768C224.046 143.755 225.442 144.34 226.929 144.284C227.305 144.269 227.59 144.178 227.909 144.07C227.984 144.044 227.966 143.772 228.088 143.749C228.815 143.613 228.627 143.986 229.089 144.174C229.601 144.382 230.359 144.045 230.067 144.686C231.457 144.634 232.773 145.026 234.038 144.337C233.44 145.442 235.528 144.524 236.074 144.506C236.98 144.476 237.775 144.855 238.679 144.942C239.764 145.047 240.854 144.626 241.915 144.883C242.746 145.084 243.031 145.568 243.897 145.32C244.632 145.11 245.091 144.654 245.448 144.155C245.94 143.466 246.003 143.159 247.19 143.147C248.071 143.138 248.956 143.296 249.844 143.295C250.863 143.293 251.982 143.203 252.911 143.608C253.913 144.044 254.501 144.708 255.612 145.05C260.606 146.586 266.089 146.179 271.3 146.153C273.499 146.142 275.112 146.311 275.729 144.213C276.251 142.441 276.46 140.588 276.957 138.801C277.567 136.611 278.237 134.579 279.59 132.622C280.902 130.724 282.006 128.762 283.148 126.79C285.524 122.689 288.832 119.2 292.519 115.867C293.92 114.601 295.526 113.19 295.593 111.367C295.639 109.792 294.809 108.161 293.722 106.907C292.751 105.787 291.151 104.524 289.341 104.785C288.251 104.942 287.536 105.678 286.723 106.23C285.834 106.832 284.865 107.243 283.794 107.572C281.295 108.339 279.2 109.177 277.036 110.501C274.847 111.84 272.8 113.339 270.906 114.963C267.272 118.081 263.547 121.32 261.459 125.357C260.636 126.947 260.11 128.481 259.549 130.13C258.998 131.749 257.497 131.303 255.809 131.07C253.753 130.786 251.686 130.634 249.615 130.454C248.836 130.387 247.737 130.367 247.268 129.751C246.751 129.072 247.344 128.192 247.391 127.487C247.416 127.111 247.266 126.833 247.229 126.466C247.186 126.049 247.334 125.667 247.334 125.252C247.335 124.358 246.835 123.562 246.003 123.02C244.448 122.007 242.179 121.402 240.338 120.845C237.824 120.083 235.13 119.709 232.541 119.166C229.625 118.554 226.693 118.002 223.761 117.446C220.881 116.9 218.006 116.339 215.095 115.918C213.387 115.671 211.535 115.761 209.88 115.311C208.121 114.831 208.413 113.351 208.418 112.039C208.426 109.873 208.106 107.642 207.726 105.501C206.919 100.948 204.997 96.492 203.25 92.1411C201.566 87.9505 199.481 83.9285 196.038 80.5279C192.686 77.2173 188.573 74.2213 184.305 71.7612C179.859 69.1977 174.912 67.3457 170.271 65.0572C171.285 64.4083 172.495 63.8546 173.078 62.8552C173.736 61.7271 173.457 60.3783 173.429 59.1725C173.397 57.8116 173.348 56.6171 172.767 55.3207C172.449 54.6107 171.22 53.264 171.408 52.492C171.724 51.1956 175.114 50.2487 176.362 49.7153C178.32 48.8786 180.282 48.0287 182.087 46.9724C183.818 45.9591 185.447 44.7394 186.496 43.1839C186.794 42.7425 187.039 42.279 187.229 41.7978C187.441 41.261 187.293 41.0781 187.934 41.0388C188.958 40.9758 190.493 41.8355 191.356 42.2152C195.804 44.1732 200.689 46.8083 205.938 46.6334C207.842 46.5701 209.983 46.0697 210.656 44.4084C211.542 42.2213 209.692 39.962 208.068 38.3823C211.235 38.7987 217.076 40.1002 219.576 37.736C221.242 36.1607 219.985 33.6603 218.589 32.2943C216.743 30.4899 214.112 29.3914 211.682 28.2432C214.664 27.2922 217.965 26.6841 220.588 25.0926C223.096 23.5708 222.786 21.2328 220.805 19.4377C218.687 17.5188 214.984 16.536 212.071 15.8236C208.498 14.9497 204.949 15.0198 201.268 15.0784C194.66 15.1834 188.985 17.2208 183.566 20.3011C180.7 21.9298 177.876 23.6876 175.335 25.6602C172.951 27.5103 170.408 29.2307 168.06 31.1007C165.784 32.9127 163.994 35.1577 161.592 36.8504C159.55 38.2897 157.311 40.3298 154.716 40.9687C151.965 41.6462 149.489 42.7667 146.714 43.4337C143.567 44.1901 140.863 45.455 137.946 46.6617C125.705 51.7261 112.565 55.022 99.6596 58.6579C93.0587 60.5175 86.4141 61.8283 79.6751 63.2485C76.2909 63.9616 73.1484 64.3421 69.6561 64.2132C68.8509 64.1836 68.0818 64.166 67.2877 64.2596C66.7055 64.328 66.2629 64.5121 65.7423 64.221C64.9942 63.8029 64.7131 62.7146 64.2672 62.095C66.7525 61.4504 69.1855 60.7531 70.3195 58.6227C71.0339 57.2802 71.4047 55.7144 71.718 54.2739C71.8862 53.4987 71.89 52.7165 72.0336 51.9408C72.1125 51.5124 72.356 51.0647 72.3373 50.6271C72.3931 50.8706 74.245 50.0697 74.5136 49.921C75.5498 49.3468 75.7385 48.1894 75.73 47.2125C75.7201 46.109 75.3218 44.8962 74.426 44.0594C74.0021 43.6633 73.4976 43.3663 72.8812 43.2171C72.4439 43.1111 71.8669 43.2498 71.4812 43.1431C69.7703 42.67 69.5788 39.1284 69.3361 37.8391C68.8013 34.9982 68.2684 32.286 67.1139 29.5628C65.0091 24.5981 62.3002 19.773 59.0737 15.2528C56.3091 11.3794 53.547 6.64338 47.4684 6.58813H47.2813ZM99.8292 125.851C102.29 126.208 104.647 126.936 107.023 127.553C109.243 128.129 111.493 128.496 113.77 128.871C118.301 129.617 122.932 130.299 127.398 131.272C128.656 131.545 129.318 132.163 130.415 132.593C131.228 132.911 131.992 132.589 132.838 132.562C134.68 132.503 136.724 133.005 138.495 133.38C142.678 134.264 146.389 135.799 150.174 137.496C150.512 137.648 152.802 138.525 152.694 138.887C152.605 139.184 149.694 138.388 149.231 138.329C146.887 138.031 144.598 137.413 142.271 137.029C140.361 136.713 138.43 136.5 136.528 136.15C134.412 135.761 129.904 134.407 129.725 137.33C129.531 140.49 133.703 141.462 136.21 142.936C135.931 143.339 131.908 142.009 131.409 141.875C129.699 141.414 128.112 140.582 126.37 140.228C123.34 139.612 123.707 142.411 125.38 143.657C127.238 145.04 130.312 145.458 131.342 147.587C129.99 147.995 128.223 147.229 126.982 146.848C125.351 146.348 123.715 145.856 122.074 145.379C118.392 144.309 114.895 142.835 111.194 141.815C103.599 139.723 95.5711 139.123 87.6318 138.752C88.3393 136.456 89.113 134.174 89.7486 131.863C90.0207 130.874 90.2698 129.881 90.4759 128.881C90.6193 128.185 90.4972 126.521 91.0701 125.972C91.7676 125.304 93.5842 126.243 94.5729 126.225C95.5413 126.207 96.2479 125.789 97.1428 125.657C97.9924 125.532 98.998 125.731 99.8292 125.851ZM242.531 139.139C242.531 140.236 242.758 141.567 241.033 141.696C239.637 141.799 236.907 141.933 235.794 141.103C236.861 140.668 238.073 140.592 239.206 140.341C240.387 140.079 241.477 139.65 242.531 139.139ZM214.051 119.145C214.575 119.148 215.461 119.636 215.94 119.772C216.816 120.022 217.707 120.232 218.601 120.43C221.289 121.025 224.75 121.118 225.984 123.532C226.6 124.736 227.027 127.834 229.168 127.823C231.071 127.812 232.21 125.515 233.568 124.698C234.97 123.853 237.195 124.428 238.708 124.795C240.245 125.167 242.631 125.645 242.459 127.275C242.335 128.447 242.082 129.514 242.094 130.711C242.109 132.234 242.262 133.755 242.262 135.279C241.183 134.042 240.241 131.555 238.329 131.057C236.397 130.555 235.304 133.378 234.802 134.46C234.179 135.801 233.396 137.322 233.349 138.775C233.334 139.231 233.665 140.485 233.285 140.86C232.949 141.193 231.654 140.951 231.236 140.915C228.646 140.689 226.07 140.409 223.473 140.221C222.139 140.124 221.775 139.879 221.906 138.679C222.008 137.736 222.04 136.838 221.899 135.891C221.268 131.666 218.158 127.801 212.898 127.067C209.729 126.625 206.027 126.948 202.863 127.373C201.644 127.536 200.32 128.03 199.081 127.987C198.165 127.956 198.46 127.912 198.273 127.191C198.142 126.688 197.861 126.258 197.403 125.909C197.041 125.633 196.581 125.788 196.24 125.428C195.993 125.167 196.03 124.811 195.914 124.51C195.686 123.925 195.275 123.135 194.457 122.987C193.14 122.749 191.74 124.224 191.075 124.985C190.388 125.771 190.18 128.12 189.076 128.427C187.802 128.782 186.285 127.384 186.02 126.504C185.662 125.32 186.112 124.039 186.328 122.867C186.343 122.783 186.406 122.004 186.475 121.953C186.661 121.816 188.062 121.854 188.31 121.844C189.531 121.795 190.754 121.793 191.976 121.79C196.766 121.78 201.458 121.386 206.217 120.966C205.526 121.908 204.342 123.456 205.557 124.451C206.457 125.188 208.082 124.818 209.212 124.97C210.809 125.185 213.502 126.452 215.024 125.526C217.168 124.219 214.742 121.974 213.946 120.739C213.775 120.474 213.143 119.543 213.411 119.232C213.643 118.964 213.711 119.143 214.051 119.145ZM249.772 133.667C250.867 133.946 251.97 134.215 253.089 134.422C254.402 134.665 256.437 134.429 257.075 135.637C257.561 136.555 257.32 138.036 256.925 138.951C256.473 139.998 255.412 140.268 254.16 140.348C252.699 140.441 251.219 140.244 249.775 140.077C249.206 140.011 248.6 139.892 248.022 139.891C247.678 139.891 246.986 140.153 246.681 139.938C246.286 139.66 246.546 138.08 246.577 137.701C246.654 136.763 246.866 135.838 246.925 134.898C246.966 134.223 246.662 133.306 247.607 133.162C248.196 133.073 249.26 133.536 249.772 133.667ZM161.334 115.096C162.152 115.214 162.966 115.299 163.797 115.289C164.309 115.282 164.922 115.136 165.396 115.371C166.27 115.805 166.14 116.949 166.11 117.662C166.073 118.528 165.983 119.406 165.873 120.267C165.767 121.091 165.227 122.447 165.99 123.153C166.528 122.66 166.793 121.049 167.832 121.108C168.974 121.173 168.446 122.699 168.345 123.246C167.785 126.267 167.147 129.29 166.647 132.32C166.409 133.761 166.102 135.191 165.943 136.638C165.836 137.61 165.8 138.485 164.502 138.686C163.299 138.873 161.948 138.554 160.732 138.53C159.48 138.505 158.762 138.433 158.042 137.487C159.767 137.171 162.499 137.364 163.47 135.838C164.603 134.058 162.214 132.456 161.038 131.24C160.136 130.305 158.29 127.199 156.615 129.044C156.012 129.708 155.903 130.722 155.598 131.495C155.103 132.75 154.498 133.988 153.904 135.212C148.471 132.866 142.895 130.751 136.97 129.434C138.48 127.298 140.351 125.375 141.481 123.06C142.748 120.465 143.798 117.8 145.094 115.214C147.148 116.217 149.344 113.786 151.389 113.688C154.62 113.533 158.166 114.637 161.334 115.096ZM193.518 132.587C194.645 133.148 196.302 134.24 196.572 135.368C197.039 137.319 194.378 136.015 193.556 135.588C191.836 134.694 190.151 134.409 188.176 134.959C185.643 135.665 183.308 136.857 180.59 135.952C179.237 135.501 176.236 134.538 177.046 132.809C177.604 131.618 179.238 132.64 180.101 133.067C182.362 134.185 184.233 133.477 186.492 132.67C188.751 131.862 191.295 131.479 193.518 132.587ZM273.739 122.576C274.643 123.649 272.805 123.417 271.998 123.522C270.31 123.74 268.572 124.865 269.037 126.458C269.49 128.011 271.267 128.982 271.605 130.612C271.896 132.012 271.616 133.784 270 134.553C269.092 134.984 267.108 135.162 266.195 134.666C264.8 133.909 266.532 132.782 267.455 132.407C268.678 131.91 269.666 131.641 269.061 130.335C268.323 128.744 266.89 127.522 267.017 125.701C267.122 124.192 268.074 122.477 269.809 121.85C271.051 121.402 272.892 121.572 273.739 122.576ZM150.274 117.951C148.711 117.895 148.649 119.475 148.728 120.252C148.835 121.315 148.605 122.448 148.578 123.514C148.543 124.925 148.189 129.549 151.174 128.863C153.094 128.421 154.673 126.882 156.216 125.894C157.636 124.984 161.244 123.892 161.478 122.167C161.742 120.218 158.897 119.854 157.266 119.544C154.939 119.102 152.679 118.037 150.274 117.951ZM157.889 66.5915C160.368 66.7915 162.833 67.0995 165.192 67.7882C166.788 68.2542 169.24 68.5883 170.371 69.7318C171.35 70.7207 170.926 72.1304 171.244 73.2988C171.674 74.8795 172.978 74.6634 174.243 73.6764C175.757 72.4948 176.195 71.6393 178.303 72.7481C182.667 75.0434 186.126 78.4321 189.587 81.5714C186.911 82.2494 181.661 82.4136 180.771 85.2107C180.286 86.7401 181.75 87.8526 183.067 88.6871C184.766 89.7649 186.54 90.7616 188.203 91.8827C189.754 92.9287 193.232 97.0936 194.216 93.4318C194.826 91.1651 193.684 88.8227 194.169 86.5836C196.273 89.422 198.41 92.2537 200.34 95.1791C201.982 97.6695 202.937 100.333 203.725 103.087C202.497 103.154 201.218 102.633 200.004 102.941C198.835 103.237 198.288 104.162 198.206 105.121C198.067 106.745 198.964 108.399 199.415 109.96C199.725 111.031 200.08 113.464 201.641 113.812C203.42 114.21 204.536 111.921 205.329 110.991C206.084 111.962 206.071 113.382 206.182 114.495C206.257 115.26 206.768 116.691 205.739 117.114C204.776 117.51 202.745 117.014 201.716 116.977C199.805 116.909 197.857 116.78 195.946 116.827C194.14 116.872 191.483 117.679 190.778 115.823C190.298 114.559 189.875 110.017 187.313 112.481C186.175 113.575 185.285 114.823 184.185 115.938C183.077 117.063 182.068 117.136 180.412 117.08C177.134 116.967 173.933 117.494 170.725 117.919C167.911 118.292 168.28 116.294 168.322 114.515C168.386 111.757 167.732 108.873 167.376 106.131C166.528 99.6097 164.788 93.1668 162.11 86.9993C164.35 86.3613 168.364 88.935 170.02 86.9804C171.381 85.3736 169.633 83.1602 168.921 81.6582C168.033 79.7842 167.584 77.8264 166.136 76.1656C165.679 75.6413 165.029 74.9386 164.144 75.1152C163.385 75.2669 163.082 76.0767 162.655 76.5337C161.299 77.9839 159.567 79.0715 158.362 80.6534C157.625 81.621 157.052 82.6551 156.812 83.7913C156.746 84.1036 156.83 84.7433 156.567 85.0053C155.752 85.8174 153.185 85.8054 152.044 86.3034C148.148 88.004 146.779 92.9541 145.266 96.0754C144.84 96.9544 144.418 97.8356 144.191 98.7673C144.04 99.3901 144.047 100.182 143.643 100.74C142.762 101.96 140.023 100.871 138.679 100.682C136.427 100.366 134.185 100.064 131.924 99.798C130.544 99.636 128.535 99.2177 127.484 100.24C126.394 101.3 127.021 102.97 127.568 104.108C128.461 105.964 129.602 107.738 130.545 109.577C131.297 111.045 131.671 112.935 133.116 114.065C134.367 115.045 136.438 115.326 137.911 114.529C138.752 114.074 140.911 109.672 141.48 109.869C140.452 113.269 138.944 116.735 137.351 119.98C136.862 120.977 136.022 123.009 134.786 123.549C133.762 123.997 131.437 123.151 130.389 122.987C129.395 122.831 127.433 122.156 126.483 122.65C125.331 123.25 125.191 124.85 125.061 125.843C124.965 126.579 125.139 127.129 124.069 127.092C123.314 127.066 122.553 126.759 121.829 126.604C120.148 126.245 118.403 126.008 116.692 125.777C112.734 125.242 108.778 124.709 104.822 124.161C101.421 123.69 98.0648 123.692 94.9918 122.343C93.4342 121.659 91.6485 121.45 89.9898 120.993C88.3448 120.539 86.7051 120.245 84.9834 120.075C81.2202 119.702 77.5583 119.338 73.8392 118.7C71.8039 118.351 69.7723 117.985 67.7478 117.594C65.9458 117.246 64.2036 116.693 62.4103 116.352C60.9183 116.068 59.6929 116.282 59.0538 114.865C58.5954 113.849 58.702 112.711 58.5843 111.648C58.0462 106.79 60.0798 101.905 60.4959 97.0743C60.6308 95.5097 60.6722 93.9403 60.8127 92.377C60.8769 91.6607 60.8381 89.5749 61.8372 89.1888C61.928 89.7618 61.8573 90.7255 62.6354 91.0095C62.2553 90.8708 62.7543 92.5631 62.7811 92.7331C62.8874 93.4086 62.6223 94.1316 62.7621 94.7944C62.6512 95.0276 62.6997 95.2032 62.907 95.3214C63.0483 95.4172 63.1513 95.5383 63.2156 95.6846C63.2255 96.1572 63.0599 95.8788 63.0521 96.0419C62.9738 97.6675 63.3023 99.3527 63.1618 101.018C63.0132 102.778 62.5435 104.505 62.1867 106.241C61.8664 107.799 61.5213 109.36 61.2541 110.926C61.0667 112.024 60.9277 113.285 61.6343 114.285C62.9759 116.183 66.8599 115.977 69.1221 116.288C72.8821 116.804 76.6474 117.27 80.4211 117.708C81.8698 117.876 83.3361 118.261 84.8018 118.28C86.3676 118.301 87.2056 117.772 88.1927 116.805C90.1816 114.858 91.4642 112.646 93.1209 110.528C94.0514 109.338 94.8254 109.024 96.3918 108.661C97.8467 108.324 99.0143 107.436 100.198 106.697C102.684 105.146 105.895 103.459 107.527 101.174C109.244 98.77 106.824 97.9718 104.507 97.3158C105.071 96.0624 106.177 95.0557 107.088 93.9774C108.123 92.7514 109.062 91.478 110.177 90.2981C112.45 87.8931 114.72 85.5006 116.926 83.0508C118.811 80.957 120.716 78.9736 123.123 77.2774C125.539 75.5736 128.23 74.1773 130.883 72.751C132.27 72.0059 134.703 70.1021 136.455 70.2967C138.155 70.4858 138.827 73.1337 139.252 74.2467C139.739 75.5238 139.911 77.3045 141.046 78.31C142.714 79.7876 144.447 77.4601 145.243 76.3874C146.701 74.4225 148.193 72.4753 149.648 70.5087C150.312 69.6122 151.27 68.7591 151.664 67.7426C151.668 67.7303 151.853 66.8563 151.667 66.9786L151.654 66.9883L151.667 66.9766C152.083 66.6315 153.621 66.5599 154.196 66.5183L154.249 66.5143C155.459 66.4188 156.683 66.4941 157.889 66.5915ZM174.139 121.686C175.532 121.679 176.922 121.815 178.309 121.91C179.527 121.993 180.644 121.837 181.861 121.776C183.365 121.7 184.11 121.832 183.763 123.132C183.511 124.078 183.208 125.338 182.047 125.738C180.479 126.278 178.366 126.206 176.695 126.41C175.468 126.56 174.244 126.696 173.023 126.867C172.211 126.981 171.795 127.1 171.415 126.331C171.097 125.686 171.302 124.825 171.41 124.159C171.494 123.648 171.444 122.75 171.732 122.295C172.163 121.617 173.291 121.691 174.139 121.686ZM109.171 108.723C107.124 110.289 105.746 112.29 104.2 114.188C103.256 115.347 101.409 117.195 102.75 118.6C103.893 119.797 106.549 119.523 108.148 119.581C110.659 119.672 112.711 120.621 115.101 121.111C121.12 122.344 116.121 113.88 115.287 112.114C114.702 110.875 114.098 109.641 113.391 108.447C113.071 107.908 112.435 106.338 111.641 106.132C110.491 105.834 109.899 108.166 109.171 108.723ZM160.891 90.9275C161.848 92.4573 162.003 94.5748 162.457 96.2456C163.843 101.354 164.654 106.558 165.292 111.765C162.121 110.713 158.774 110.64 155.427 110.382C153.001 110.196 150.774 109.982 148.348 110.069C147.935 110.084 146.746 110.259 146.405 109.965C145.947 109.57 146.501 108.469 146.637 108.054C147.372 105.799 147.695 103.469 148.531 101.228C149.383 98.9422 150.418 96.6598 151.52 94.4503C152.326 92.8342 153.433 91.2582 155.386 90.4656C157.096 89.772 159.83 89.2306 160.891 90.9275ZM173.948 100.871C172.642 102.518 170.987 103.959 169.711 105.622C168.807 106.801 167.748 108.982 169.92 109.732C170.683 109.995 171.583 109.882 172.383 109.893C173.618 109.911 174.842 110 176.08 109.975C177.251 109.952 178.411 109.833 179.579 109.782C180.315 109.75 181.239 109.797 181.888 109.444C183.626 108.495 182.369 106.559 181.809 105.32C181.215 104.004 180.412 102.759 179.638 101.512C179.101 100.647 178.298 98.8842 177.077 98.5316C175.63 98.1139 174.551 100.111 173.948 100.871ZM110.606 82.2057C107.735 84.9983 105.242 88.0443 102.894 91.1553C101.749 92.6735 100.636 94.2095 99.5255 95.7457C98.7988 96.7509 98.2531 98.0368 97.3679 98.9473C95.3483 101.024 94.7866 96.4928 94.4891 95.5078C93.391 91.8758 92.0312 88.2732 90.8216 84.6639L92.0615 84.664C97.0031 84.6617 101.741 84.6005 106.552 83.3827C107.914 83.0381 109.156 82.29 110.606 82.2057ZM121.043 82.9098C119.48 83.8755 109.474 89.5453 113.683 91.7332C114.554 92.186 115.977 91.9806 116.961 92.0455C118.223 92.1288 119.504 92.2309 120.75 92.4178C122.363 92.66 123.93 93.0823 125.551 93.2963C126.84 93.4665 128.547 93.665 129.698 92.9939C131.597 91.8866 130.445 89.7119 129.818 88.3042C128.926 86.3039 128.082 83.6261 125.871 82.4348C125.357 82.1576 124.726 81.1677 124.173 81.0771C123.306 80.935 121.677 82.5183 121.043 82.9098ZM65.8386 35.8784C66.5931 36.3612 66.6275 37.3641 66.8232 38.0718C67.4813 40.4526 68.3998 42.7701 68.9449 45.1763C69.4763 47.5231 69.6433 49.8336 69.3826 52.2119C69.2085 53.7982 69.1884 55.7501 68.0357 57.1009C66.6561 58.7172 63.9245 58.6344 61.8585 59.1131C59.8708 59.5738 57.9 61.0003 60.0681 62.4833C60.8386 63.0101 61.8503 63.0958 62.6121 63.6033C63.5516 64.2298 64.0912 65.3523 64.4903 66.2701C64.8191 67.0257 64.8094 67.1701 63.8275 67.437C63.3791 67.5589 62.9259 67.6363 62.4541 67.6036C61.3797 67.5289 60.4211 66.9354 59.5216 66.4894C57.2273 65.352 54.5773 63.8336 51.8381 63.6619C50.9625 63.6072 49.9671 63.9069 49.1158 63.669C48.3225 63.447 48.566 63.3112 48.4282 62.6941C47.8825 60.2478 47.6609 57.8468 46.1698 55.6338C45.4337 54.5418 43.488 52.3081 42.1838 54.0082C41.6393 54.7182 41.4422 55.065 40.234 54.8471C39.251 54.6701 38.171 54.0197 38.366 53.0699C38.5497 52.1738 39.9584 51.5637 40.8121 51.171C41.9493 50.6483 42.7467 50.7086 43.985 50.5848C47.3873 50.2446 45.0019 46.0822 44.5114 44.5203C44.2031 43.5387 43.8425 42.2699 44.6518 41.3836C45.8836 40.0355 48.5671 40.4788 50.2577 40.67C52.5955 40.9345 55.1476 41.0754 57.3356 40.1879C59.6503 39.249 60.6369 37.1316 62.8074 36.1021C63.6094 35.7216 65.0147 35.3504 65.8386 35.8784ZM55.6801 53.074C54.0716 53.0559 54.8535 54.9743 55.2938 55.6193C56.2217 56.9797 58.2091 57.5058 59.9542 57.0041C61.3347 56.6073 62.8278 54.8542 60.6658 54.5635C59.629 54.4243 58.6027 54.481 57.6202 54.0685C57.0605 53.8335 56.337 53.0813 55.6801 53.074ZM59.7154 42.8725C58.716 43.38 60.4216 46.6215 60.7089 47.2775C61.1767 48.3482 61.593 49.0394 60.403 49.8646C59.5755 50.4386 57.9434 50.9339 58.7227 52.0776C59.4438 53.1359 61.9183 52.6921 62.9244 52.1743C64.3869 51.4214 63.9559 49.9792 63.6333 48.7956C63.4225 48.0202 61.4949 41.9689 59.7154 42.8725ZM217.087 21.5896C214.005 22.6909 210.853 23.6856 207.592 24.3492C204.742 24.9293 201.94 25.5547 199.003 25.4184C196.285 25.2927 195.961 27.5257 197.513 29.0722C198.357 29.9123 199.335 29.8913 200.564 29.9238C202.002 29.9619 203.309 30.2958 204.696 30.5947C206.809 31.0499 208.949 31.4366 210.996 32.0791C212.053 32.4108 213.095 32.8008 214.038 33.325C214.63 33.6547 215.952 34.2486 215.253 34.7093C214.242 35.3748 211.242 34.4631 210.039 34.403C207.238 34.2633 204.443 34.0518 201.658 33.7585C200.294 33.6146 198.829 33.4725 197.537 33.058C196.692 32.7869 195.756 32.1138 194.799 32.2848C192.78 32.6455 193.78 35.1777 194.697 36.0015C196.059 37.2248 198.126 37.7651 199.884 38.4602C201.113 38.9462 202.335 39.4608 203.528 40.0047C204.092 40.2616 206.72 41.2241 206.637 41.9549C206.55 42.723 204.475 42.3356 203.962 42.2658C200.539 41.8 197.449 40.6927 194.286 39.5595C192.902 39.0634 191.498 38.5874 190.142 38.0374C189.195 37.653 188.264 37.0673 187.218 36.8927C184.752 36.4807 184.86 38.785 183.889 40.0299C181.002 43.7295 175.425 45.3077 171.086 47.4457C169.444 48.2543 167.879 49.1856 166.372 50.1598C165.296 50.8554 164.866 51.8128 163.665 50.8955C162.664 50.1308 162.181 49.0093 161.539 48.0367C160.792 46.9045 159.794 45.9048 159.028 44.7819C157.896 43.1228 157.558 41.5404 160.043 40.9298C162.652 40.289 164.717 39.3333 166.934 37.9698C172.376 34.6233 176.892 30.35 182.318 26.9779C187.345 23.8537 192.676 20.9219 198.978 20.083C204.951 19.2875 211.505 19.4834 217.087 21.5896ZM54.0468 45.6203C54.1744 46.5415 54.4456 48.5064 55.9756 48.5799C57.8336 48.669 56.5858 43.9473 55.5332 43.4159C53.848 42.565 53.9388 44.8397 54.0468 45.6203ZM71.3364 45.2442C73.6558 45.4049 74.3168 47.53 71.9986 48.2824L71.3364 45.2442ZM62.7364 43.3791C63.0342 44.3436 62.9282 45.8913 63.8535 46.6316C65.1577 47.6747 65.7256 46.1438 65.7159 45.2709C65.7066 44.4076 65.1951 42.2481 63.8137 42.1343C62.6336 42.0371 63.6158 43.1815 62.7364 43.3791ZM37.7053 21.9213C38.5532 23.3972 37.6416 24.8538 37.1342 26.3045C38.1751 26.5851 39.5777 26.3729 40.2133 27.2932C40.6139 27.8732 40.5441 28.7466 40.4241 29.3748C40.3257 29.8901 39.8206 30.5839 40.241 31.0622C40.7914 31.6881 42.1575 31.3987 42.7645 32.095C43.6872 33.154 43.1695 35.5729 41.8749 36.37C40.0553 37.4898 41.1412 34.7417 41.2524 34.2413C41.5315 32.9877 39.9788 33.1581 38.9184 32.6519C38.3493 32.3803 38.2478 32.3278 38.1172 31.748C37.9967 31.2138 38.0606 30.7901 38.2127 30.2144C38.7289 28.2613 37.8264 28.5803 35.9715 28.1499C34.3715 27.7785 34.4997 26.709 34.9061 25.5848C35.225 24.7036 36.1754 23.258 35.1459 22.5067C34.7374 22.2085 34.1169 22.3971 34.0288 21.7748C33.9692 21.3547 34.6431 20.6659 34.997 20.4244C36.2165 19.5916 37.2095 21.0582 37.7053 21.9213Z" fill="black"/>
</g>
</svg>
