<svg width="81" height="80" viewBox="0 0 81 80" fill="none" xmlns="http://www.w3.org/2000/svg">
<circle cx="40.604" cy="40" r="40" fill="#FFE6F7"/>
<path d="M40.604 29V51" stroke="#2D033B" stroke-width="2" stroke-linecap="round" stroke-linejoin="round"/>
<path d="M45.604 33H38.104C37.1757 33 36.2855 33.3687 35.6291 34.0251C34.9728 34.6815 34.604 35.5717 34.604 36.5C34.604 37.4283 34.9728 38.3185 35.6291 38.9749C36.2855 39.6313 37.1757 40 38.104 40H43.104C44.0323 40 44.9225 40.3687 45.5789 41.0251C46.2353 41.6815 46.604 42.5717 46.604 43.5C46.604 44.4283 46.2353 45.3185 45.5789 45.9749C44.9225 46.6313 44.0323 47 43.104 47H34.604" stroke="#2D033B" stroke-width="2" stroke-linecap="round" stroke-linejoin="round"/>
</svg>
