<svg width="81" height="80" viewBox="0 0 81 80" fill="none" xmlns="http://www.w3.org/2000/svg">
<circle cx="40.604" cy="40" r="40" fill="#FFE6F7"/>
<path d="M49.604 38C49.604 45 40.604 51 40.604 51C40.604 51 31.604 45 31.604 38C31.604 35.6131 32.5522 33.3239 34.24 31.636C35.9279 29.9482 38.2171 29 40.604 29C42.991 29 45.2801 29.9482 46.968 31.636C48.6558 33.3239 49.604 35.6131 49.604 38Z" stroke="#2D033B" stroke-width="2" stroke-linecap="round" stroke-linejoin="round"/>
<path d="M40.604 41C42.2609 41 43.604 39.6569 43.604 38C43.604 36.3431 42.2609 35 40.604 35C38.9471 35 37.604 36.3431 37.604 38C37.604 39.6569 38.9471 41 40.604 41Z" stroke="#2D033B" stroke-width="2" stroke-linecap="round" stroke-linejoin="round"/>
</svg>
