<svg width="100" height="36" viewBox="0 0 100 36" fill="none" xmlns="http://www.w3.org/2000/svg">
<path d="M7.512 27.288C6.168 27.288 4.88 27.112 3.648 26.76C2.416 26.392 1.424 25.92 0.672 25.344L1.992 22.416C2.712 22.928 3.56 23.352 4.536 23.688C5.528 24.008 6.528 24.168 7.536 24.168C8.304 24.168 8.92 24.096 9.384 23.952C9.864 23.792 10.216 23.576 10.44 23.304C10.664 23.032 10.776 22.72 10.776 22.368C10.776 21.92 10.6 21.568 10.248 21.312C9.896 21.04 9.432 20.824 8.856 20.664C8.28 20.488 7.64 20.328 6.936 20.184C6.248 20.024 5.552 19.832 4.848 19.608C4.16 19.384 3.528 19.096 2.952 18.744C2.376 18.392 1.904 17.928 1.536 17.352C1.184 16.776 1.008 16.04 1.008 15.144C1.008 14.184 1.264 13.312 1.776 12.528C2.304 11.728 3.088 11.096 4.128 10.632C5.184 10.152 6.504 9.912 8.088 9.912C9.144 9.912 10.184 10.04 11.208 10.296C12.232 10.536 13.136 10.904 13.92 11.4L12.72 14.352C11.936 13.904 11.152 13.576 10.368 13.368C9.584 13.144 8.816 13.032 8.064 13.032C7.312 13.032 6.696 13.12 6.216 13.296C5.736 13.472 5.392 13.704 5.184 13.992C4.976 14.264 4.872 14.584 4.872 14.952C4.872 15.384 5.048 15.736 5.4 16.008C5.752 16.264 6.216 16.472 6.792 16.632C7.368 16.792 8 16.952 8.688 17.112C9.392 17.272 10.088 17.456 10.776 17.664C11.48 17.872 12.12 18.152 12.696 18.504C13.272 18.856 13.736 19.32 14.088 19.896C14.456 20.472 14.64 21.2 14.64 22.08C14.64 23.024 14.376 23.888 13.848 24.672C13.32 25.456 12.528 26.088 11.472 26.568C10.432 27.048 9.112 27.288 7.512 27.288ZM17.2967 27V10.2H21.1847V27H17.2967ZM25.1717 27V10.2H28.3877L38.2997 22.296H36.7397V10.2H40.5797V27H37.3877L27.4517 14.904H29.0117V27H25.1717ZM42.3465 27L49.8345 10.2H53.6745L61.1865 27H57.1065L50.9625 12.168H52.4985L46.3305 27H42.3465ZM46.0905 23.4L47.1225 20.448H55.7625L56.8185 23.4H46.0905ZM66.0474 27L60.5514 10.2H64.5834L69.3594 25.08H67.3434L72.3354 10.2H75.9354L80.7354 25.08H78.7914L83.6874 10.2H87.4074L81.9114 27H77.7354L73.4874 13.944H74.5914L70.2234 27H66.0474Z" fill="black"/>
<circle cx="95" cy="22" r="5" fill="#2D033B"/>
</svg>
