<svg width="428" height="345" viewBox="0 0 428 345" fill="none" xmlns="http://www.w3.org/2000/svg">
<ellipse cx="214" cy="167.659" rx="214" ry="141.256" fill="#FFE6F7"/>
<path fill-rule="evenodd" clip-rule="evenodd" d="M180.238 187.13C176.374 190.111 176.989 195.977 178.152 200.239C179.865 206.515 183.277 212.324 187.17 217.332C194.075 226.215 205.797 236.19 216.603 228.391C226.225 221.445 232.295 207.43 234.39 195.625C235.038 191.977 235.9 186.541 232.858 183.799C228.36 179.744 220.426 180.482 214.996 181.004C211.42 181.347 207.969 182.514 204.436 181.966C196.225 180.693 187.087 181.846 180.238 187.13Z" fill="#2D033B"/>
<path fill-rule="evenodd" clip-rule="evenodd" d="M346.712 233.617C338.883 244.185 325.574 245.855 313.753 245.751C306.655 245.689 299.543 245.12 292.585 243.581C288.833 242.751 285.107 241.651 281.482 240.331C279.087 239.458 275.523 239.022 274.504 236.291C271.816 229.088 273.794 220.054 274.9 212.742C275.463 209.023 275.886 205.282 276.434 201.56C276.784 199.178 276.952 196.543 277.89 194.316C278.988 191.706 280.375 192.227 282.697 192.948C285.897 193.942 289.182 194.355 292.471 194.89C300.5 196.194 307.505 198.825 314.801 202.554C322.016 206.241 329.015 209.88 335.45 215.007C338.711 217.605 341.52 220.425 344.138 223.736C346.16 226.294 349.177 230.288 346.712 233.617ZM312.492 280.556C312.429 281.694 300.16 278.259 298.546 277.873C287.952 275.345 277.148 272.465 267.147 267.896C257.812 263.632 249.587 258.753 242.242 251.177C238.818 247.646 235.738 243.927 232.791 239.966C231.314 237.981 229.296 238.211 227.649 236.532C226.167 235.02 225.031 233.84 225.494 231.581C229.196 232.618 236.032 239.144 239.87 235.849C242.057 233.971 239.023 232.009 237.623 230.92C234.99 228.874 232.738 226.349 230.645 223.699C234.239 224.44 237.584 225.873 240.712 227.866C242.101 228.752 246.864 231.964 247.972 228.902C248.655 227.017 245.426 224.649 244.419 223.606C241.946 221.046 239.277 218.057 237.965 214.615C241.21 213.814 244.269 216.483 246.479 218.657C248.933 221.071 251.94 223.604 253.997 226.386C255.059 227.82 255.29 229.515 256.118 231.062C257.051 232.803 258.544 234.295 259.97 235.583C262.717 238.065 265.931 239.893 269.23 241.404C276.768 244.858 284.847 247.302 292.882 249.017C296.824 249.858 300.669 250.246 304.669 250.389C307.779 250.5 309.155 251.489 310.342 254.538C313.555 262.787 312.971 271.863 312.492 280.556ZM220.224 217.696C218.426 219.486 216.09 220.609 214.211 222.33C212.558 223.844 210.65 225.46 208.805 226.685C206.835 227.991 205.363 227.075 203.589 225.893C201.506 224.505 199.112 223.943 196.968 222.701C189.552 218.406 180.48 207.881 181.864 198.218C182.451 194.122 184.44 190.092 188.054 188.234C191.335 186.546 196.106 185.61 199.616 187.021C201.596 187.816 203.014 189.573 204.282 191.3C205.762 193.314 206.328 192.996 207.835 191.054C210.531 187.581 214.978 184.533 219.373 184.606C221.557 184.643 223.727 185.133 225.695 186.098C225.962 186.229 226.11 186.625 226.378 186.759C226.707 186.924 227.247 186.581 227.475 186.735C228.051 187.123 228.626 188.336 228.959 188.951C230.292 191.42 232.693 196.262 230.274 198.34C230.272 198.341 230.381 201.153 230.348 201.474C230.177 203.151 229.632 204.536 228.93 206.07C226.822 210.678 223.71 214.226 220.224 217.696ZM223.808 256.686C222.105 257.25 220.271 251.57 221.905 250.664C223.462 249.799 225.35 256.177 223.808 256.686ZM197.061 249.896C196.471 252.041 196.222 254.476 194.78 256.222C193.459 254.554 193.329 251.477 194.609 249.763C195.341 248.785 197.706 247.551 197.061 249.896ZM251.558 212.306C251.549 212.36 253.607 213.408 252.603 214.554C251.23 216.119 251.419 213.073 251.558 212.306ZM260.066 194.821C260.042 196.99 255.727 196.466 255.758 194.285C255.795 191.599 260.091 192.521 260.066 194.821ZM254.915 176.691C255.342 174.705 262.848 171.942 262.643 175.403C262.541 177.139 254.009 180.913 254.915 176.691ZM177.967 244.045C177.125 245.121 175.93 245.546 174.922 246.372C173.864 247.238 173.108 248.361 172.185 249.378C169.648 252.169 166.594 254.462 163.858 257.026C158.826 261.739 154.007 266.806 148.428 270.804C138.46 277.946 126.9 281.853 115.424 285.273C114.473 285.557 111.734 286.7 110.794 285.848C109.779 284.93 110.295 281.696 110.342 280.474C110.532 275.462 111.081 270.391 111.022 265.387C110.997 263.331 110.432 260.409 111.44 258.528C112.565 256.428 115.707 255.813 117.65 255.022C123.557 252.62 129.247 248.567 134.465 244.813C140.88 240.199 147.358 235.507 153.959 231.199C160.426 226.979 167.559 224.153 174.773 221.743C175.107 222.49 171.665 224.895 171.272 225.232C169.385 226.849 167.331 228.525 165.93 230.66C164.938 232.171 163.921 235.59 166.66 235.677C167.988 235.72 169.95 234.353 171.154 233.911C173.142 233.181 175.191 232.669 177.271 232.335C175.483 234.43 169.422 238.194 170.525 241.678C171.595 245.059 177.783 241.114 179.913 241.114C179.564 242.293 178.686 243.124 177.967 244.045ZM104.858 253.482C100.895 254.965 96.8325 255.808 92.7422 256.765C88.8436 257.678 85.2399 258.366 81.2467 257.832C75.7332 257.094 69.6319 254.664 68.9329 247.997C68.1041 240.098 73.3464 232.839 77.8478 227.172C83.3261 220.276 89.4777 214.112 96.1446 208.53C102.804 202.954 109.992 198.038 117.522 193.888C123.251 190.73 129.721 188.813 135.779 186.444C136.931 185.993 140.119 184.409 141.197 185.722C142.068 186.783 140.882 188.552 140.485 189.537C139.711 191.459 139.604 193.393 139.404 195.456C138.511 204.67 137.436 213.881 136.941 223.134C136.803 225.712 136.561 228.41 136.702 230.99C136.78 232.42 137.479 234.24 137.014 235.636C136.119 238.318 132.022 240.094 129.85 241.292C125.963 243.437 121.846 245.038 117.919 247.09C113.606 249.343 109.406 251.779 104.858 253.482ZM159.821 193.616C160.909 193.457 162.538 193.141 163.508 193.891C164.772 194.869 164.441 196.23 163.273 196.939C162.35 197.5 160.191 197.654 159.28 197.145C157.728 196.278 157.99 193.884 159.821 193.616ZM165.845 214.95C164.966 216.508 161.753 217.53 162.033 214.622C162.273 212.133 167.464 212.081 165.845 214.95ZM164.653 171.057C166.066 171.64 168.63 172.138 169.049 174.073C169.439 175.873 167.836 175.754 166.679 175.259C165.728 174.852 161.488 171.026 164.653 171.057ZM386.061 239.742C385.236 236.324 385.864 232.539 385.409 229.039C384.967 225.645 384.172 222.526 383.031 219.328C380.505 212.248 377.61 205.874 373.516 199.66C365.803 187.958 356.856 177.65 346.051 169.103C335.385 160.665 323.573 153.808 311.061 149.002C297.793 143.905 284.438 142.131 270.446 141.154C266.268 140.862 262.093 140.517 257.939 139.955C254.902 139.544 251.096 139.039 248.093 140.029C246.207 140.651 245.153 142.401 247.208 143.55C248.665 144.364 250.572 144.462 252.181 144.678C250.238 151.249 247.075 157.842 242.063 162.367C237.171 166.784 230.624 168.299 224.449 169.419C221.1 170.026 217.351 170.496 213.951 170.234C211.801 170.069 210.124 169.009 209.256 171.366C208.654 173.003 208.37 174.8 207.576 172.328C206.637 169.405 206.177 169.424 203.257 168.594C197.286 166.896 190.441 165.347 185.232 161.676C179.828 157.868 177.948 151.706 174.931 145.969C174.185 144.551 171.934 141.681 173.084 140.056C174.136 138.57 177.556 138.718 179.122 138.563C180.775 138.399 182.438 138.393 184.096 138.324C185.056 138.285 186.989 138.704 186.602 137.177C186.019 134.875 179.772 135.17 178.22 135.133C175.335 135.064 172.411 135.135 169.54 135.473C155.307 137.148 140.946 140.245 127.173 144.376C100.451 152.389 74.5702 167.154 55.0687 188.426C36.3492 208.845 30.4185 242.824 41.9266 268.896C47.9071 282.446 60.8861 288.012 73.4676 292.508C80.1039 294.878 87.1311 296.733 94.1855 296.286C97.5708 296.071 100.783 295.101 104.085 294.37C105.524 294.051 107.163 293.543 108.642 293.671C109.762 293.768 110.837 294.862 111.887 294.281C112.633 293.868 112.957 292.684 113.868 292.18C114.961 291.575 116.287 291.356 117.468 291.051C120.752 290.202 123.93 288.826 127.14 287.698C130.458 286.53 133.59 285.027 136.774 283.508C138.382 282.74 142.102 279.62 143.15 281.901C143.627 282.942 143.424 284.95 143.54 286.042C143.744 287.952 143.984 289.858 144.245 291.759C144.822 295.946 145.512 300.115 146.22 304.279C147.497 311.792 149.143 318.985 151.894 326.052C154.092 331.695 156.021 338.092 160.1 342.581C161.881 344.54 164.311 345.422 166.866 344.806C169.772 344.106 171.218 341.297 172.982 339.026C176.863 334.028 183.27 330.199 189.187 328.821C196.432 327.133 203.489 329.602 210.405 331.7C217.72 333.92 225.167 336.035 232.347 338.703C239.037 341.19 246.262 344.862 253.518 344.543C259.846 344.264 265.756 338.784 270.32 334.606C274.903 330.411 280.634 324.267 287.225 324.762C290.497 325.007 293.479 326.687 296.667 327.37C300.166 328.12 303.89 328.226 307.448 328.506C311.866 328.852 321.748 327.627 323.382 321.972C323.625 321.132 323.626 319.405 322.585 319.069C321.628 318.761 321.138 319.952 320.231 319.898C318.385 319.787 316.943 316.362 315.929 315.036C311.837 309.683 306.223 305.691 301.631 300.855C296.446 295.395 292.019 288.779 288.111 282.255C289.878 281.767 291.784 282.578 293.493 282.963C295.57 283.431 297.594 283.997 299.642 284.597C301.898 285.258 304.186 285.713 306.476 286.217C308.184 286.592 310.452 286.705 311.994 287.617C313.34 288.413 314.091 289.269 315.762 289.499C317.462 289.734 319.207 289.536 320.914 289.524C325.532 289.491 330.14 289.399 334.736 288.88C350.976 287.044 368.191 279.734 377.956 265.226C380.612 261.28 382.752 256.909 384.104 252.27C385.16 248.648 386.979 243.544 386.061 239.742Z" fill="black"/>
<path fill-rule="evenodd" clip-rule="evenodd" d="M233.741 72.5884C238.009 72.6526 242.009 73.9994 245.986 75.5305C249.483 76.8768 253.211 78.1223 256.039 80.8094C261.125 85.6432 262.45 93.6468 263.282 100.494C264.321 109.039 260.866 116.208 257.958 123.938C255.238 131.168 250.247 137.025 244.313 141.488C241.205 143.826 237.769 145.237 234.175 146.475C230.524 147.731 226.988 149.415 223.082 149.408C217.15 149.399 209.555 146.401 207.028 140.181C205.878 137.349 206.998 136.841 209.3 138.38C212.64 140.613 215.859 143.022 219.762 144.013C227.331 145.935 236.396 142.958 243.033 139.03C249.668 135.103 254.122 129.204 257.098 121.859C260.102 114.449 261.269 107.147 260.11 99.1587C259.129 92.3889 257.176 86.2051 251.444 82.5301C239.068 74.5978 222.395 75.2369 211.389 85.5457C209.88 86.9589 208.388 88.3341 206.833 89.6835C205.844 90.5412 204.679 91.5703 204.823 93.0537C204.946 94.3239 207.491 99.2214 204.426 97.7171C201.942 96.4973 200.592 94.1128 197.583 93.8176C194.38 93.5032 190.559 96.1218 189.601 99.4175C188.687 102.562 190.317 106.864 192.869 108.668C194.45 109.785 196.19 109.613 197.985 109.568C198.876 109.545 201.356 109.237 201.945 110.239C202.988 112.012 199.308 113.875 198.121 114.267C195.23 115.222 191.815 114.099 190.153 111.353C188.464 108.562 187.308 105.332 187.075 102.007C186.853 98.8207 187.533 95.5951 189.299 92.9793C191.177 90.1973 195.007 87.0784 198.439 88.0448C199.929 88.4643 201.126 90.1025 202.589 90.4137C203.512 90.6098 203.123 90.7501 203.888 90.0221C204.373 89.5603 204.832 88.708 205.28 88.1605C207.856 85.0126 210.404 81.6532 213.557 79.1337C219.211 74.616 226.726 72.4823 233.741 72.5884ZM218.106 134.998C218.774 133.33 220.003 136.306 220.366 136.803C221.085 137.788 222.776 138.554 222.703 140.005C222.582 142.402 219.512 141.958 218.489 140.707C217.324 139.284 217.446 136.646 218.106 134.998ZM239.916 123.65C241.572 126.396 239.554 129.361 238.244 131.792C236.992 134.116 235.829 136.744 234.372 138.929C231.952 142.557 226.688 138.632 226.532 134.903C226.413 132.049 228.313 133.292 229.532 134.358C230.787 135.456 231.382 135.729 232.698 134.53C235.345 132.116 236.534 128.081 238.364 125.025C238.727 124.419 239.384 124.055 239.916 123.65ZM244.637 124.533C245.064 125.861 244.168 129.381 246.659 129.029C248.035 128.834 248.329 126.733 249.052 125.816C251.485 122.732 250.739 128.564 250.103 130.024C248.702 133.241 244.78 135.457 242.835 131.376C242.111 129.858 242.115 127.942 242.482 126.31C242.682 125.421 243.849 122.08 244.637 124.533ZM222.428 118.242C222.207 119.792 220.838 122.88 222.51 123.988C223.98 124.964 226.541 122.845 227.674 121.96C228.85 121.04 231.517 118.402 231.621 121.685C231.675 123.359 230.101 125.366 228.978 126.33C226.581 128.386 221.602 130.23 219.836 126.361C218.874 124.253 219.4 121.252 220.036 119.128C220.552 117.406 222.96 114.499 222.428 118.242ZM253.857 109.757C254.832 110.962 257.143 113.662 255.887 115.379C254.417 117.385 252.03 113.704 251.089 112.68C250.241 111.757 248.457 109.129 249.217 107.735C250.477 105.429 253.001 108.699 253.857 109.757ZM238.529 104.568C241.717 106.778 237.526 108.369 235.711 108.567C233.513 108.805 230.704 108.964 228.685 107.816C225.825 106.19 226.778 103.733 229.551 103.145C232.394 102.542 236.056 102.853 238.529 104.568ZM197.09 97.5331C199.434 98.0185 202.112 98.6502 202.91 101.37C203.734 104.18 202.55 105.113 200.156 104.48C197.941 103.895 194.632 103.305 193.379 101.003C191.883 98.2515 194.917 97.0836 197.09 97.5331Z" fill="black"/>
<path fill-rule="evenodd" clip-rule="evenodd" d="M68.111 157.927C67.3244 160.63 63.3429 162.423 61.3574 164.067C54.4126 169.816 47.6263 175.802 41.3478 182.364C38.0891 185.77 35.6225 189.89 32.7965 193.678C32.107 194.602 30.8856 196.673 29.5332 196.479C28.0495 196.266 27.7496 193.547 27.7969 192.359C27.959 188.309 31.4346 184.398 33.9133 181.609C36.7015 178.473 39.6825 175.418 42.7268 172.562C46.0787 169.419 49.7159 166.717 53.4226 164.072C57.0624 161.475 60.5522 158.474 64.3374 156.121C66.1205 155.013 69.0813 154.591 68.111 157.927ZM310.871 132.252C313.77 132.35 316.599 133.361 319.332 134.301C325.346 136.367 331.074 139.234 336.721 142.23C346.623 147.483 356.152 153.837 364.886 161.063C366.712 162.573 368.584 163.796 370.569 165.031C371.84 165.822 373.652 166.787 374.141 168.399C375.385 172.497 369.108 168.384 368.218 167.796L366.965 166.969C348.381 154.712 329.818 142.803 308.797 135.774C307.677 135.399 307.329 134.336 307.916 133.282C308.553 132.14 309.794 132.216 310.871 132.252ZM67.2652 140.829C67.1309 142.076 65.8028 142.36 64.9072 142.761C61.5652 144.255 58.1398 145.529 54.8068 147.047C48.6208 149.866 42.9399 153.956 36.4831 156.095C35.0076 156.585 34.7899 155 35.1849 153.922C35.6249 152.718 36.9463 151.873 37.9021 151.177C40.6592 149.167 43.786 147.722 46.8477 146.326C49.8831 144.941 53.0085 143.893 56.1207 142.732C59.0132 141.652 62.3704 139.643 65.4765 139.495L65.6123 139.488C66.6008 139.435 67.4218 139.364 67.2652 140.829ZM316.147 121.874C313.192 120.989 315.984 118.998 317.74 119.138C319.7 119.294 321.594 120.278 323.452 120.872C329.133 122.688 334.399 124.673 339.706 127.49C340.498 127.911 343.985 129.905 341.678 130.788C340.08 131.4 336.346 128.775 334.974 128.146C328.943 125.378 322.462 123.763 316.147 121.874Z" fill="black"/>
<path fill-rule="evenodd" clip-rule="evenodd" d="M198.334 128.319C198.703 127.165 203.272 114.556 201.484 114.176C199.589 113.773 197.057 121.088 196.508 122.41C194.478 127.292 193.277 132.529 192.335 137.765C191.679 141.411 191.103 145.146 191.333 148.874C191.509 151.738 192.621 152.172 194.453 153.927C194.453 145.226 195.695 136.554 198.334 128.319Z" fill="black"/>
<path fill-rule="evenodd" clip-rule="evenodd" d="M74.9156 110.893C74.6131 110.934 74.3105 110.975 74.0084 111.016C74.3111 110.975 74.6133 110.934 74.9156 110.893Z" fill="black"/>
<path fill-rule="evenodd" clip-rule="evenodd" d="M326.191 73.4904C322.719 78.6916 319.5 84.0668 316.005 89.2408C312.697 94.1405 309.857 98.5457 308.631 104.497C315.202 100.388 321.686 96.1858 328.119 91.8836C331.31 89.7496 334.544 87.6609 337.69 85.4697C340.125 83.7752 342.071 82.1532 345.365 83.4365C349.2 84.9307 346.455 87.273 344.263 88.3384C341.241 89.8084 338.442 91.8145 335.526 93.5151C329.017 97.3115 322.638 101.27 316.264 105.262C314.283 106.504 303.962 114.648 303.386 108.189C303.139 105.425 305.149 101.359 305.616 98.6093C306.214 95.0828 307.834 92.0381 309.501 88.9376C312.977 82.4756 317.345 76.3936 321.032 69.9903C322.915 66.72 324.797 63.4503 326.679 60.1807C327.783 58.2653 328.353 57.6473 330.739 58.8686C332.474 59.7556 333.593 61.3735 334.758 62.8439C337.719 66.5792 340.587 70.3861 343.461 74.1818C344.558 75.6289 350.096 81.1416 349.807 82.8073C349.15 86.5865 342.475 77.7774 341.614 76.7503C338.368 72.8749 335.261 68.8871 331.677 65.2983C329.811 68.0079 327.961 70.718 326.191 73.4904Z" fill="black"/>
<path fill-rule="evenodd" clip-rule="evenodd" d="M284.144 24.4826C282.661 33.4788 281.737 42.6086 280.195 51.5763C278.735 60.0684 277.645 67.6422 280.482 76.6883C287.97 67.8434 295.24 58.9055 302.344 49.8473C305.866 45.3546 309.498 40.9067 312.902 36.3521C315.537 32.8293 317.424 29.6319 323.908 29.9674C331.456 30.3583 328.839 34.9458 326.092 37.4607C322.304 40.9298 319.324 45.0623 315.899 48.8124C308.258 57.1832 300.961 65.726 293.702 74.3158C291.446 76.9861 281.063 93.2894 274.84 84.3368C272.175 80.5054 272.173 73.792 270.698 69.6582C268.806 64.3556 268.993 59.2768 269.213 54.0965C269.674 43.2998 271.915 32.6403 272.772 21.8314C273.209 16.3112 273.646 10.7922 274.083 5.27315C274.34 2.03961 274.777 0.898994 279.712 1.55815C283.298 2.03622 286.467 3.83601 289.589 5.40501C297.525 9.38981 305.367 13.5184 313.209 17.629C316.201 19.1954 329.841 24.5457 330.724 27.0535C332.726 32.7428 314.517 23.2061 312.258 22.1317C303.736 18.0767 295.354 13.7978 286.509 10.3051C285.642 15.0177 284.801 19.7241 284.144 24.4826Z" fill="black"/>
<path fill-rule="evenodd" clip-rule="evenodd" d="M46.9032 59.8272C36.3658 61.2625 26.7498 64.4813 25.0617 72.5073C23.5275 79.8014 30.8585 86.5495 39.8608 89.9639C49.5974 93.6577 61.7975 94.2713 71.4992 90.1777C81.7123 85.8681 84.0291 77.2317 77.8129 70.4562C70.8768 62.895 59.2571 60.6633 46.9032 59.8272ZM53.6752 56.3279C66.2234 57.5741 77.8716 63.6263 82.0984 71.7775C86.4561 80.1802 82.4521 89.4185 70.9156 94.0225C47.601 103.328 16.4399 87.8203 22.067 69.9962C23.4958 65.4705 27.5529 61.9659 33.065 59.3162C39.1504 56.3903 46.5092 56.3107 53.6752 56.3279Z" fill="black"/>
<path fill-rule="evenodd" clip-rule="evenodd" d="M90.4033 39.5948C83.6293 40.3124 77.4475 41.9218 76.3623 45.9348C75.3761 49.5818 80.0888 52.9559 85.8761 54.6631C92.1353 56.51 99.9782 56.8168 106.215 54.77C112.781 52.6152 114.27 48.297 110.274 44.9092C105.815 41.1286 98.3451 40.0128 90.4033 39.5948ZM94.7567 37.8451C102.823 38.4682 110.312 41.4943 113.029 45.5699C115.83 49.7712 113.256 54.3904 105.84 56.6924C90.8519 61.3451 70.8198 53.5913 74.4372 44.6792C75.3557 42.4164 77.9638 40.6641 81.5073 39.3392C85.4194 37.8763 90.15 37.8365 94.7567 37.8451Z" fill="black"/>
<path fill-rule="evenodd" clip-rule="evenodd" d="M134.507 32.6729C130.142 33.0786 126.158 33.9882 125.459 36.2564C124.823 38.3178 127.86 40.2249 131.59 41.1898C135.623 42.2337 140.678 42.4072 144.697 41.2503C148.928 40.0323 149.888 37.5916 147.313 35.6768C144.439 33.5399 139.625 32.9092 134.507 32.6729ZM137.313 31.684C142.511 32.0362 147.337 33.7466 149.088 36.0502C150.893 38.4249 149.235 41.0357 144.455 42.3368C134.796 44.9666 121.887 40.5841 124.218 35.5468C124.81 34.2678 126.491 33.2774 128.774 32.5285C131.295 31.7016 134.344 31.6792 137.313 31.684Z" fill="black"/>
</svg>
