<svg width="492" height="408" viewBox="0 0 492 408" fill="none" xmlns="http://www.w3.org/2000/svg">
<ellipse cx="271.373" cy="231.707" rx="182.831" ry="169.241" fill="#FFE6F7"/>
<path fill-rule="evenodd" clip-rule="evenodd" d="M252.957 217.472C256.091 226.38 259.225 235.288 262.359 244.197C263.519 247.491 262.852 251.481 262.956 254.975C263.165 262.089 263.463 269.161 266.612 275.501C269.551 281.42 273.169 286.983 276.867 292.342C281.887 284.414 289.668 278.215 297.151 273.535C302.307 270.311 307.941 267.446 313.852 266.518C315.689 266.229 317.716 266.033 319.538 266.567C319.292 263.432 319.246 260.249 319.459 257.111C319.792 252.194 320.947 248.856 324.303 245.572C326.01 243.903 327.849 242.398 329.723 240.968C330.391 240.458 332.36 239.553 332.763 238.758C333.117 238.06 332.796 236.048 332.844 235.222C333.009 232.328 333.412 229.427 334.175 226.65C335.617 221.399 338.173 216.55 339.77 211.335C337.392 210.957 335.013 210.579 332.635 210.201C331.024 209.945 329.958 209.19 328.926 210.501C325.349 215.037 322.298 220.262 319.03 225.076C316.874 228.251 314.777 231.441 312.336 234.359C308.436 239.022 301.418 246.573 295.663 240.696C292.709 237.68 292.26 232.498 292.201 228.315C292.121 222.621 292.901 216.926 293.789 211.335C285.084 210.413 276.115 211.996 267.579 213.789C262.671 214.82 257.777 216.014 252.957 217.472Z" fill="#2D033B"/>
<path fill-rule="evenodd" clip-rule="evenodd" d="M301.362 183.726C294.953 183.726 292.173 193.156 299.897 193.067C305.922 192.998 309.1 183.726 301.362 183.726ZM298.909 194.87C289.291 194.87 292.818 181.989 301.398 181.955C311.984 181.914 307.307 194.869 298.909 194.87ZM403.571 360.632C399.669 361.53 395.75 362.462 391.954 363.821C389.625 364.655 386.984 367.043 385.724 363.55C385.202 362.104 384.991 360.571 384.36 359.168C383.634 357.551 382.679 356.069 381.669 354.66C379.366 351.454 376.959 348.081 374.341 345.202C369.258 339.613 364.492 333.448 358.322 329.401C356.736 328.362 355.419 326.695 353.891 325.497C352.249 324.209 350.6 322.933 348.916 321.714C345.467 319.218 341.951 316.83 338.386 314.544C340.18 312.124 342.657 310.495 344.954 308.743C347.412 306.869 349.83 304.91 352.256 302.987C353.319 302.144 353.835 301.928 355.021 302.651C356.112 303.318 357.18 304.154 358.222 304.912C360.779 306.772 363.051 308.964 365.086 311.497C369.47 316.952 374.6 321.357 379.481 326.224C384.434 331.164 389.369 336.355 393.577 342.1C395.831 345.179 398.052 348.39 400.006 351.714C401.039 353.47 401.916 355.323 402.816 357.164C403.167 357.881 405.026 360.297 403.571 360.632ZM336.06 309.802C335.941 310.12 335.674 310.4 335.365 310.166C335.282 310.102 335.518 308.603 335.531 308.423C335.625 307.131 335.643 305.833 335.625 304.538C335.592 302.095 335.404 299.659 335.262 297.221C334.976 292.283 334.928 287.325 334.412 282.406C335.514 283.012 337.017 283.892 337.786 285.006C338.417 285.921 338.322 286.72 338.333 287.843C338.366 291.232 338.843 294.605 339.062 297.982C339.151 299.346 339.205 300.708 339.525 302.033C339.796 303.153 340.409 304.397 340.141 305.585C339.682 307.611 337.352 308.561 336.06 309.802ZM342.112 288.613C343.447 289.628 344.975 290.217 345.25 292.187C345.515 294.096 345.151 295.847 345.742 297.722C346.094 298.834 346.846 300.194 346.232 301.281C345.591 302.415 343.982 302.993 343.048 303.783C342.863 301.309 343.019 298.823 342.857 296.349C342.687 293.762 342.112 291.215 342.112 288.613ZM348.75 294.302C349.914 295.34 351.077 296.378 352.24 297.417C351.076 298.121 349.914 298.826 348.75 299.531V294.302ZM331.504 314.163C330.646 314.936 329.175 314.026 328.439 313.464C327.294 312.588 327.092 311.803 327.202 310.286C327.472 306.531 326.853 302.907 326.297 299.201C325.048 290.883 324.034 282.504 323.429 274.097C325.601 275.257 328.469 276.558 329.827 278.905C330.704 280.421 330.447 282.359 330.405 284.081C330.348 286.432 330.171 288.779 330.176 291.131C330.184 295.757 330.651 300.381 330.767 305.006C330.817 306.946 330.811 308.937 331.645 310.698C331.833 311.094 332.804 312.268 332.831 312.593C332.88 313.198 331.907 313.794 331.504 314.163ZM320.94 308.478C318.177 306.88 317.83 302.772 317.178 299.767C316.269 295.58 315.396 291.304 314.87 287.034C314.352 282.835 314.447 278.579 313.858 274.387C313.728 273.467 312.905 271.422 313.251 270.508C313.69 269.353 315.328 269.383 316.25 269.207C317.095 269.046 318.679 268.043 319.225 268.889C319.678 269.593 319.241 271.2 319.134 271.955C318.638 275.471 319.134 279.018 319.494 282.535C320.416 291.526 321.168 300.518 322.542 309.445C322.008 309.122 321.479 308.79 320.94 308.478ZM316.227 317.625C316.146 316.027 316.067 314.428 315.986 312.83C316.825 313.182 317.665 313.533 318.504 313.885C317.844 315.198 317.253 316.604 316.227 317.625ZM313.294 321.606C312.511 322.511 311.817 323.7 310.736 324.199V311.312C311.653 311.463 312.684 311.193 313.06 312.312C313.347 313.167 312.962 314.495 313.072 315.432C313.254 316.978 314.447 320.273 313.294 321.606ZM307.91 302.65C307.106 295.447 306.87 288.182 305.821 281.011C305.584 279.388 305.312 277.813 304.956 276.217C304.73 275.209 304.261 273.981 304.845 273.033C305.745 271.574 308.269 271.617 309.647 271.255C309.481 282.548 309.958 294.065 313.509 304.766C312.338 304.616 308.108 304.424 307.91 302.65ZM307.457 327.353C305.954 328.564 304.593 330.318 302.746 330.883C302.631 325.76 302.563 320.634 302.385 315.513C302.343 314.322 302.315 313.119 302.205 311.932C302.159 311.427 301.854 310.387 302.073 309.88C302.635 308.58 304.694 309.466 305.544 310.055C306.717 310.865 306.586 312.201 306.568 313.632C306.545 315.458 306.571 317.212 306.692 319.039C306.799 320.659 306.935 322.227 307.191 323.822C307.277 324.357 307.962 326.946 307.457 327.353ZM300.241 332.906C298.417 334.018 297.743 331.896 296.908 330.499C296.334 329.54 295.418 328.63 295.187 327.467C294.954 326.297 295.475 325.113 295.563 323.958C295.776 321.183 294.967 318.32 294.653 315.585C294.296 312.478 294.165 309.327 294.165 306.196C295.543 306.892 298.01 306.921 298.505 308.808C298.726 309.646 298.431 310.727 298.386 311.582C298.309 313.022 298.352 314.476 298.336 315.919C298.273 321.638 298.483 327.221 301.341 332.19C300.977 332.434 300.61 332.673 300.241 332.906ZM294.391 336.385C291.305 337.838 288.337 339.69 285.08 340.647C281.821 341.603 278.498 342.468 275.195 343.212C268.282 344.771 261.18 345.684 254.12 345.433C250.664 345.31 247.263 344.804 243.849 344.223C240.391 343.634 237.398 342.249 234.126 340.976C227.766 338.5 221.246 336.895 215.216 333.438C213.761 332.604 212.345 331.691 210.899 330.838C210.132 330.384 209.189 330.19 209.147 329.109C209.104 327.991 210.19 325.936 210.621 324.934C211.288 323.381 212.318 322.147 213.363 320.895C215.135 318.772 216.798 315.614 218.947 313.978C220.133 313.075 220.62 313.627 221.66 314.431C223.029 315.49 224.664 316.244 226.197 316.967C232.505 319.942 239.674 321.744 246.459 322.624C253.139 323.491 259.743 324.333 266.395 322.566C270.159 321.566 273.692 319.883 277.25 318.225C278.426 317.676 279.749 316.471 280.824 317.413C281.975 318.421 282.661 320.503 283.601 321.779C285.852 324.834 288.646 327.21 290.898 330.257C291.444 330.997 295.974 335.639 294.391 336.385ZM205.949 321.768C204.951 323.405 204.052 325.177 203.767 327.156C201.849 325.446 200.54 324.866 202.083 322.163C203.524 319.637 204.805 317.062 206.118 314.446C206.654 313.377 207.45 312.124 207.276 310.828C207.077 309.352 205.895 308.689 204.744 309.355C203.927 309.828 203.312 311.078 202.774 311.88C201.802 313.324 200.956 314.858 200.131 316.409C199.518 317.561 198.938 319.426 198.082 320.31C197.505 320.904 196.777 320.936 196.624 319.773C196.488 318.739 197.867 316.916 198.279 316.094C198.949 314.753 199.687 313.444 200.214 312.021C200.76 310.547 201.117 305.665 198.485 308.092C197.576 308.93 196.811 310.547 196.127 311.608C195.074 313.239 194.086 314.922 193.175 316.656C191.568 315.461 190.039 313.574 188.099 313.06C186.256 312.572 184.601 314.432 183.028 315.29C180.578 316.625 178.265 318.244 175.933 319.81C173.851 321.207 171.637 322.301 169.595 323.779C166.043 326.351 161.717 329.739 157.256 328.211C155.488 327.606 153.536 326.36 152.576 324.538C151.278 322.076 151.609 318.795 150.774 316.129C153.139 317.584 155.632 315.904 157.718 314.651C160.055 313.246 162.48 312.045 164.932 310.912C170.003 308.569 175.26 306.524 180.25 303.998C190.001 299.06 198.221 291.099 208.005 286.273C210.306 293.694 214.108 300.531 219.146 306.041C214.336 310.828 209.591 315.795 205.949 321.768ZM282.974 292.202C281.669 291.516 280.08 291.373 280.986 289.479C281.629 288.134 283.028 287.198 283.911 286.054L285.001 293.364C284.326 292.975 283.662 292.563 282.974 292.202ZM290.365 296.23C290.199 292.586 289.789 288.829 288.581 285.416C288.227 284.416 287.62 283.237 288.126 282.196C288.644 281.132 290.167 280.55 291.107 280.106C291.823 286.314 292.168 292.631 293.828 298.649C292.604 298.275 290.45 298.092 290.365 296.23ZM291.381 321.213C291.388 321.323 291.394 321.433 291.4 321.543C290.143 320.853 288.737 319.785 288.083 318.352C287.398 316.848 287.764 315.12 287.773 313.512C287.782 311.657 287.498 309.861 287.189 308.046C286.841 305.998 287.058 304.079 287.176 302.02C288.185 302.779 289.702 303.314 290.367 304.523C291.063 305.788 290.663 307.436 290.525 308.81C290.116 312.895 290.42 317.244 291.381 321.213ZM303.143 302.322C300.717 301.943 299.426 301.397 298.999 298.593C298.475 295.15 297.923 291.726 297.499 288.265C297.105 285.05 295.75 281.718 295.615 278.512C295.52 276.255 298.928 275.451 300.471 274.611C301.296 283.854 301.706 293.158 303.143 302.322ZM278.361 287.35C278.091 288.038 277.867 288.747 277.622 289.446C275.909 286.618 274.22 283.85 272.225 281.255C270.378 278.85 268.837 276.394 267.891 273.392C266.864 270.138 265.923 266.685 265.613 263.243C265.301 259.772 265.588 256.213 265.66 252.733C265.702 250.712 266.719 245.608 265.294 243.961C264.77 243.356 263.943 243.561 263.351 243.001C262.539 242.234 262.277 240.661 261.942 239.607C259.829 232.964 257.967 226.12 254.855 219.944C259.005 217.969 263.701 216.976 268.073 215.768C272.664 214.499 277.432 213.716 282.145 213.28C284.42 213.069 286.699 212.98 288.982 212.999C290.834 213.015 292.687 212.67 292.06 215.295C291.111 219.26 290.424 223.323 290.469 227.446C290.534 233.466 291.92 241.455 297.435 244.199C306.026 248.472 312.802 238.204 317.2 231.695C320.275 227.145 323.24 222.646 325.894 217.762C326.762 216.166 327.503 213.705 329.157 212.908C331.208 211.92 334.168 212.605 336.335 212.605C336.171 215.513 336.004 217.947 334.871 220.622C333.772 223.214 332.873 225.824 332.134 228.569C331.427 231.195 331.107 233.646 330.813 236.328C330.553 238.711 328.359 237.869 326.79 238.553C323.111 240.156 321.128 245.01 319.672 248.754C318.742 251.146 317.782 253.595 317.385 256.181C316.911 259.274 317.253 262.422 317.36 265.532C316.725 265.682 316.029 265.111 315.43 264.954C314.518 264.714 313.521 264.707 312.591 264.774C310.543 264.924 308.465 265.331 306.466 265.838C302.143 266.935 298.055 268.915 294.14 271.198C287.794 274.898 281.321 279.79 278.361 287.35ZM257.083 239.759C250.593 242.243 244.007 244.558 237.238 245.903C233.91 246.564 230.579 246.423 227.216 246.312C225.671 246.261 224.329 245.977 222.831 245.624C221.691 245.355 219.789 244.698 218.731 245.455C218.114 243.197 214.857 243.155 213.187 242.791C211.828 242.495 210.632 241.733 209.297 241.375C208.796 241.241 208.308 241.264 207.865 240.982C207.439 240.712 207.199 240.099 206.756 239.86C206.12 239.516 205.347 239.493 204.878 239.004C203.79 237.87 202.574 236.861 201.497 235.709C200.41 234.546 199.894 233.044 199.152 231.602C198.286 229.916 196.94 228.257 196.301 226.462C196.581 226.676 196.86 226.893 197.138 227.113C196.986 225.002 196.465 223.146 196.597 220.958C196.663 219.878 196.564 219.186 196.441 218.165C196.347 217.385 196.439 216.743 196.449 215.87C196.477 213.538 197.169 211.404 197.499 209.127C197.608 208.371 197.666 207.56 197.696 206.812C197.723 206.128 197.34 205.218 197.412 204.481C197.7 204.644 197.959 204.85 198.189 205.102C197.544 203.347 199.615 201.26 199.845 199.585C200.19 197.065 198.033 196.426 196.209 196.728C193.754 197.134 191.487 198.747 189.29 199.927C186.282 201.544 183.289 203.168 180.341 204.919C176.883 206.972 173.864 209.696 170.46 211.792C170.029 212.057 168.441 213.204 168.154 212.247C167.898 211.4 169.672 209.865 170.103 209.424C172.315 207.158 174.796 205.151 177.278 203.267C178.993 201.965 180.789 200.801 182.545 199.569C184.431 198.246 187.074 196.754 187.814 194.226C188.424 192.146 187.716 190.256 185.608 190.853C182.879 191.626 180.146 193.753 177.641 195.166C175.139 196.578 172.598 197.912 170.111 199.356C169.556 199.678 167.426 201.344 167.785 200.013C168.075 198.937 169.749 197.638 170.471 196.903C171.541 195.812 172.667 194.793 173.827 193.825C176.28 191.778 178.885 189.966 181.531 188.249C183.154 187.195 184.901 186.084 184.987 183.742C185.134 179.724 181.854 181.856 179.961 182.653C177.43 183.719 174.806 184.486 172.268 185.534C169.954 186.488 167.617 187.526 165.149 187.875C163.887 188.053 162.008 188.107 162.312 186.146C162.638 184.045 165.337 182.602 166.811 181.664C169.333 180.06 171.918 179.449 174.719 178.75C177.769 177.989 180.777 177.169 183.861 176.579C190.111 175.384 196.127 174.961 202.441 175.6C205.335 175.892 208.276 175.579 211.137 175.873C213.04 176.069 214.468 177.386 215.503 179.091C218.023 183.245 219.081 188.909 218.676 193.818C218.089 200.929 215.299 206.923 212.915 213.398C211.101 218.324 209.747 225.168 214.611 228.522C216.908 230.106 219.502 229.996 222.074 229.579C225.545 229.017 228.964 228.123 232.355 227.142C239.056 225.203 245.692 223.025 252.308 220.756C252.6 222.038 258.918 239.056 257.083 239.759ZM293.07 228.547C293.315 224.735 293.437 220.976 294.04 217.206C294.236 215.979 294.324 214.616 295.286 213.804C296.237 213.001 297.648 212.976 298.73 212.481C301.602 211.166 303.95 208.144 306.121 205.764C308.363 203.306 309.819 200.505 310.876 197.221C311.722 194.595 313.063 190.447 311.497 187.864C310.278 185.853 308.292 185.147 308.917 182.25C309.452 179.774 311.666 178.38 313.589 180.046C314.79 181.087 316.141 183.615 316.141 180.178C321.265 181.44 326.56 179.446 331.037 176.741C331.913 176.212 332.986 175.373 333.875 176.206C334.463 176.757 334.655 177.842 335.299 178.453C335.972 179.091 337.028 179.446 337.235 180.515C337.396 181.338 336.929 182.621 336.729 183.383C336.219 185.323 335.532 187.306 334.137 188.663C333.533 189.251 331.46 191.238 330.683 190.397C329.785 189.426 331.733 186.278 329.258 188.081C328.373 188.726 328.098 188.757 327.721 189.935C327.278 191.319 327.076 192.789 326.9 194.238C325.938 193.888 324.41 192.749 323.427 193.577C322.496 194.361 322.987 196.002 323.754 196.684C324.54 197.384 326.143 197.515 327.062 197.065C328.533 196.346 328.54 194.506 328.854 192.995C329.685 193.665 330.24 194.853 331.434 194.625C327.806 199.409 323.029 202.722 317.356 202.733C314.79 202.738 313.821 203.835 313.31 206.616C312.787 209.458 312.802 212.556 312.798 215.438C312.795 217.79 312.872 220.197 313.518 222.457C313.946 223.955 314.781 225.414 315.308 222.965C315.592 221.65 315.391 220.14 315.379 218.794C315.372 217.948 315.116 216.403 315.614 215.707C316.167 214.933 317.45 215.359 318.22 215.351C319.835 215.334 321.381 214.663 322.998 214.663C320.609 218.577 317.903 222.236 315.616 226.229C313.278 230.311 310.436 234.146 306.992 237.143C304.115 239.647 300.109 240.94 296.842 238.501C294.04 236.409 292.838 232.151 293.07 228.547ZM337.586 192.672C338.629 194.327 335.263 197.586 333.972 197.561C334.301 196.972 336.933 191.637 337.586 192.672ZM339.879 215.333C340.262 214.109 342.426 214.21 343.325 214.177C345.283 214.106 347.246 214.1 349.207 214.033C354.567 213.851 359.923 213.42 365.288 213.516C370.842 213.614 376.401 213.027 381.945 213.242C387.212 213.445 392.46 213.99 397.638 215.094C407.125 217.116 416.987 219.998 424.569 227.083C431.38 233.446 436.455 242.655 435.381 252.832C434.719 259.108 434.478 265.7 432.34 271.633C430.524 276.676 426.71 279.8 422.771 282.705C422.72 281.496 425.614 273.673 422.525 274.87C421.528 275.255 420.951 276.781 420.407 277.696C419.454 279.3 418.434 280.871 417.4 282.414C415.525 285.214 413.373 287.862 410.607 289.592C409.536 290.263 406.127 292.236 405.522 290.072C405.02 288.279 408.274 284.65 409.04 283.278C409.719 282.062 410.263 280.887 410.008 279.439C409.909 278.881 409.607 278.369 409.494 277.811C409.402 277.359 409.508 276.668 409.325 276.255C408.096 273.496 406.787 278.275 406.398 279.138C405.054 282.123 401.924 284.066 399.489 285.778C396.46 287.907 393.463 290.214 389.946 291.22C392.147 287.029 394.397 282.865 396.395 278.548C398.256 274.528 399.432 269.876 401.606 266.146C401.973 265.516 402.223 264.834 402.514 264.079C402.695 263.609 402.968 262.007 403.207 261.726C403.344 261.567 404.104 261.506 404.403 261.183C404.77 260.787 404.977 260.158 405.164 259.641C405.386 259.028 406.236 256.891 406.012 256.197C405.966 256.051 405.358 256.114 405.253 255.846C405.129 255.532 405.219 255.303 405.206 254.983C405.177 254.244 405.597 253.686 405.101 252.979C407.612 252.979 405.272 245.469 404.843 244.104C404.365 242.587 403.566 241.497 403.198 240.017C402.748 238.211 401.5 236.628 400.385 235.264C399.27 233.9 398.107 232.273 396.852 231.085C395.552 229.855 393.798 229.16 392.321 228.228C391.663 227.813 390.958 227.262 390.202 227.093C389.957 227.174 389.713 227.259 389.469 227.346C389.186 227.181 388.934 226.969 388.714 226.709C387.302 225.893 385.919 225.599 384.33 225.385C376.476 224.33 368.059 224.14 360.174 224.88C356.078 225.265 351.914 225.704 347.879 226.597C343.701 227.523 339.59 228.704 335.366 229.385C336.32 224.5 338.408 220.028 339.879 215.333ZM362.608 155.408C363.333 155.3 363.029 156.399 362.795 156.729C362.49 156.34 362.428 155.9 362.608 155.408ZM464.358 387.718C463.764 384.54 461.729 381.262 459.383 379.361C456.488 377.016 453.219 376.989 449.817 377.18C445.919 377.399 442.132 378.156 438.293 378.883C434.391 379.621 430.551 380.256 426.765 381.576C425.248 382.105 423.706 382.551 422.21 383.147C421.094 383.592 419.805 384.446 419.246 382.825C418.231 379.881 422.136 378.601 423.691 377.359C424.538 376.682 425.663 375.704 424.601 374.657C423.345 373.419 421.216 374.61 419.936 375.122C418.754 375.596 417.555 375.76 417.855 373.66C418.055 372.265 419.683 371.361 420.594 370.546C421.714 369.544 425.648 366.593 423.124 365.097C420.438 363.504 418.93 367.477 416.634 367.682C414.614 367.862 414.627 362.336 414.062 360.822C412.636 357 409.064 361.182 407.459 358.877C406.797 357.927 407.026 356.217 406.779 355.102C406.372 353.268 405.428 351.468 404.666 349.787C402.979 346.067 401.031 342.494 398.851 339.107C396.673 335.723 394.26 332.814 391.514 330.001C388.761 327.179 386.36 323.972 383.652 321.1C378.261 315.381 372.048 310.675 366.524 305.097C365.249 303.809 364.034 302.466 362.545 301.478C361.178 300.572 358.918 300.083 357.829 298.793C357.121 297.955 357.237 296.775 356.893 295.744C356.311 293.995 354.913 292.812 353.715 291.59C348.148 285.909 342.324 280.265 335.786 275.993C332.616 273.921 329.404 271.342 326.002 269.782C324.903 269.278 323.417 269.069 322.512 268.146C321.565 267.178 321.386 265.486 321.027 264.177C318.803 256.062 323.385 247.658 328.947 242.615C329.937 241.718 331.363 240.978 331.999 239.723C332.696 238.347 332.729 236.583 333.472 235.184C334.849 232.594 338.595 232.951 340.961 232.363C355.243 228.809 372.193 227.433 386.192 233.102C392.075 235.484 397.128 239.494 399.378 246.171C400.394 249.185 400.928 252.453 400.844 255.674C400.75 259.263 399.569 262.593 398.488 265.935C397.189 269.954 395.736 273.914 394.053 277.755C392.535 281.221 390.61 284.342 388.933 287.696C387.891 289.78 386.24 293.622 388.623 295.346C390.523 296.721 393.54 295.917 395.414 294.912C398.218 293.407 400.291 290.707 402.745 288.651C402.756 290.688 401.127 292.513 401.869 294.574C402.606 296.622 404.607 296.356 406.188 295.857C407.993 295.286 409.864 294.4 411.516 293.415C413.603 292.171 415.104 290.263 416.877 288.571C419.992 285.599 424.131 284.603 427.467 282.026C430.916 279.362 433.298 275.33 434.752 271.004C436.435 265.993 437.123 260.621 437.703 255.337C438.277 250.11 438.558 244.958 437.001 239.896C434.042 230.268 428.036 222.677 419.964 217.915C402.93 207.866 383.689 208.277 364.982 208.829C359.854 208.98 354.722 209.057 349.603 209.43C347.249 209.602 344.89 209.816 342.553 210.168C341.84 210.276 340.244 210.882 339.609 210.233C339.119 209.732 339.406 208.678 338.962 208.074C337.905 206.637 335.546 207.006 334.138 207.198C332.359 207.439 330.264 207.481 328.665 208.445C327.128 209.372 326.593 211.313 324.688 211.342C322.569 211.374 320.356 210.814 318.221 210.724C316.543 210.653 315.052 210.01 316.661 207.965C317.887 206.405 319.94 206.415 321.608 206.061C324.69 205.409 331.697 199.677 334.005 203.651C334.639 204.742 334.594 205.138 335.812 205.615C336.938 206.056 338.216 206.271 339.396 206.486C341.591 206.886 344.143 207.208 346.291 206.356C349.629 205.032 350.319 200.861 351.098 197.486C354.663 199.592 360.046 200.571 363.566 197.817C366.524 195.503 367.588 190.652 367.46 186.844C367.422 185.712 367.287 184.55 366.925 183.485C366.589 182.497 365.683 181.469 365.717 180.37C365.746 179.413 366.558 178.582 366.931 177.78C367.484 176.589 367.749 175.175 367.859 173.848C368.26 168.976 364.986 166.257 361.584 164.016C363.582 161.369 365.817 158.728 365.643 155.021C365.48 151.562 363.022 149.155 360.487 147.532C358.22 146.081 355.933 145.519 353.39 145.168C352.281 145.014 351.858 145.141 352.035 143.869C352.175 142.859 352.827 141.962 353.029 140.963C354.201 135.139 349.026 132.922 344.838 132.415C337.942 131.579 331.549 133.141 325.947 137.667C321.854 128.081 308.206 132.81 304.402 140.239C303.903 141.213 303.535 142.272 303.362 143.379C303.248 144.12 303.608 145.867 303.276 146.43C302.627 147.527 300.044 146.488 299.134 146.541C297.466 146.636 295.68 147.597 294.333 148.646C288.641 153.08 288.929 162.189 290.295 168.88C286.637 169.432 282.939 172.798 282.865 177.125C282.828 179.297 283.535 181.747 284.678 183.502C285.847 185.3 287.979 186.501 288.198 188.891C288.428 191.406 287.951 192.881 289.841 194.777C291.227 196.167 293.059 197.29 294.809 197.994C298.906 199.642 303.568 199.058 307.548 197.28C305.525 200.832 302.288 203.997 299.135 206.277C297.721 207.3 296.059 208.614 294.465 209.25C292.736 209.941 290.595 208.736 288.808 208.569C280.775 207.822 272.504 209.447 264.775 211.667C256.409 214.07 248.139 216.709 239.836 219.378C235.725 220.7 231.621 222.096 227.468 223.245C224.349 224.108 220.876 224.867 217.653 224.255C214.906 223.734 213.559 221.673 214.444 218.582C215.61 214.51 217.885 210.712 219.295 206.713C221.903 199.315 223.195 190.815 220.915 183.112C219.991 179.993 218.677 176.372 216.162 174.429C214.833 173.403 213.169 172.797 211.726 171.986C209.894 170.955 207.924 170.209 205.942 169.621C197.977 167.263 189.575 168.365 181.621 170.182C174.436 171.824 163.275 174.151 160.066 182.713C158.969 185.641 158.57 190.59 161.298 192.633C163.646 194.39 167.191 193.253 169.474 191.926C167.249 194.773 164.485 197.487 163.411 201.183C163.034 202.484 162.743 204.28 163.506 205.486C164.615 207.239 166.502 206.208 167.992 205.797C166.244 208.304 163.727 212.302 165.511 215.507C167.485 219.052 171.465 216.676 173.922 215.195C177.567 212.999 181.369 211.147 185.021 208.963C186.978 207.794 188.897 206.553 190.603 204.961C192.016 203.644 193.214 202.245 195.164 202.086C192.62 207.428 190.111 212.985 190.158 219.181C190.201 224.95 192.237 231.808 194.989 236.694C197.868 241.806 202.516 244.953 207.422 247.213C212.763 249.676 218.212 251.338 224.014 251.605C235.324 252.126 247.517 249.196 257.277 242.765C258.007 242.283 258.033 242.115 258.717 242.673C259.593 243.386 260.296 245.957 260.843 247.035C262.449 250.2 261.974 252.86 261.671 256.328C261.132 262.489 262.343 268.713 264.047 274.546C265.749 280.374 268.578 284.986 272.121 289.622C273.71 291.701 275.363 293.343 277.51 294.677C279.845 296.129 281.835 297.393 282.741 300.346C283.496 302.808 283.374 304.913 282.324 307.23C282.053 307.83 281.532 309.663 281.034 310.081C280.561 310.479 280.435 310.123 279.996 310.252C279.194 310.489 278.966 310.621 278.318 311.305C276.585 313.133 274.021 313.617 271.777 314.364C268.689 315.391 265.511 316.388 262.278 316.57C256.709 316.883 250.345 316.847 244.983 315.063C239.583 313.265 233.986 312.231 228.791 309.719C226.428 308.577 225.34 307.993 224.838 305.134C224.572 303.617 224.19 303.498 223.047 303.062C221.735 302.56 221.209 301.871 220.436 300.543C219.051 298.17 217.733 295.76 216.447 293.32C214.835 290.264 212.819 287.458 211.303 284.35C210.396 282.492 209.708 279.227 207.347 279.154C205.946 279.111 204.42 280.244 203.161 280.821C201.627 281.524 200.079 282.192 198.548 282.904C192.653 285.645 187.389 289.763 182.002 293.538C176.123 297.658 169.399 300.571 163.174 304.042C160.269 305.661 157.496 307.521 154.841 309.605C153.124 310.952 149.773 312.422 150.024 315.097C149.174 314.581 148.112 313.681 147.299 314.753C146.628 315.638 147.088 317.266 147.257 318.273C147.812 321.585 148.472 324.96 150.287 327.736C153.162 332.135 158.641 335.742 163.634 334.95C169.738 333.982 174.633 329.153 179.878 325.981C181.793 324.823 183.716 323.744 185.531 322.399C186.6 321.606 188.484 319.897 189.889 320.103C192.032 320.416 190.24 323.236 189.653 324.336C189.032 325.5 188.513 326.727 187.958 327.933C187.336 329.283 186.302 330.791 185.945 332.255C185.72 333.181 185.83 334.586 186.866 334.818C187.921 335.054 188.823 333.535 189.358 332.783C190.239 331.543 190.973 330.185 191.73 328.85C192.232 327.963 192.852 326.273 193.7 325.719C195.896 324.283 193.494 328.886 193.1 329.515C192.605 330.304 191.888 331.257 191.768 332.231C191.592 333.664 192.642 335.048 193.991 334.705C195.031 334.44 195.732 333.236 196.317 332.349C196.693 331.779 197.816 329.555 198.544 329.533C198.995 329.521 200.131 331.261 200.482 331.638C201.503 332.735 202.712 333.483 203.981 334.167C209.855 337.332 215.196 341.387 221.324 344.017C227.178 346.531 233.283 348.511 239.376 350.145C242.589 351.006 245.593 351.945 248.907 352.248C252.26 352.555 255.565 352.401 258.922 352.325C265.771 352.167 272.227 350.586 278.808 348.569C290.495 344.987 301.476 339.108 310.522 330.005C312.86 327.653 314.976 325.069 316.977 322.364C317.846 321.189 318.757 320.025 319.492 318.741C319.984 317.881 320.431 316.41 321.297 315.92C322.631 315.164 325.707 317.557 326.91 318.22C328.228 318.946 329.576 319.896 331.012 320.275C331.552 320.417 332.077 320.429 332.606 320.634C333.133 320.838 333.756 321.482 334.357 321.338C336.598 320.801 332.925 316.001 336.212 318.432C341.462 322.316 346.37 326.958 351.319 331.298C352.557 332.384 353.827 333.339 355.151 334.291C356.391 335.183 357.341 336.397 358.528 337.362C361.125 339.473 363.575 341.727 365.937 344.159C368.278 346.568 370.523 349.116 372.996 351.359C375.421 353.558 377.31 356.096 379.351 358.716C381.342 361.273 382.828 364.212 384.242 367.189C383.06 366.731 382.068 365.949 381.418 367.663C380.999 368.765 381.357 370.278 381.627 371.375C382.494 374.893 384.313 378.051 385.406 381.483C386.651 385.394 388.49 389.148 389.527 393.126C390.443 396.646 390.227 400.543 391.538 403.955C392.615 406.755 396.535 406.107 398.799 406.357C402.419 406.758 405.996 407.21 409.636 407.336C417.208 407.597 424.877 408.234 432.449 407.91C439.335 407.614 446.207 407.144 453.071 406.485C454.949 406.305 459.13 405.886 459.562 403.143C459.841 401.371 458.425 401.637 457.351 401.748C455.823 401.905 454.277 401.88 452.743 401.909C445.393 402.049 438.176 402.161 430.84 401.539C423.337 400.903 415.84 400.745 408.333 400.434C404.949 400.295 401.662 400.228 398.289 400.398C397.281 400.449 396.044 400.584 395.48 399.499C394.915 398.409 394.993 395.817 394.738 394.59C393.847 390.322 391.891 386.541 390.575 382.441C389.249 378.304 387.928 374.182 386.234 370.207C391.663 369.147 397.084 367.952 402.437 366.485C404.616 365.888 406.916 365.489 409.031 364.677C411.368 363.78 411.42 364.27 411.866 366.728C412.254 368.87 412.696 370.394 410.936 371.821C409.108 373.302 406.871 374.189 405.223 375.948C403.719 377.555 404.022 379.855 406.438 379.523C408.828 379.195 411.568 377.191 413.733 376.074C414.036 377.531 414.318 378.569 413.471 379.827C412.573 381.159 411.205 382.01 410.193 383.218C409.445 384.11 408.661 385.417 409.889 386.281C411.153 387.17 412.414 386.009 413.359 385.206C414.075 384.597 415.254 383.254 416.206 384.008C417.197 384.792 416.673 386.78 417.258 387.85C418.247 389.658 418.93 388.32 419.894 387.556C421.444 386.326 424.605 386.668 426.452 386.498C428.668 386.293 430.83 385.839 433.031 385.537C435.654 385.177 438.297 385.159 440.917 384.744C444.937 384.105 449.351 382.285 453.385 383.427C459.674 385.208 462.723 392.714 461.725 399.479C461.528 400.813 460.56 403.755 461.676 404.897C462.724 405.97 463.478 404.045 463.859 403.123C465.852 398.298 465.296 392.751 464.358 387.718Z" fill="black"/>
<path fill-rule="evenodd" clip-rule="evenodd" d="M391.347 195.051C399.987 194.074 408.932 196.242 417.268 198.608C424.751 200.733 432.028 204.227 437.088 210.954C437.883 212.012 438.771 214.333 439.848 215.013C441.5 216.057 441.323 213.491 440.91 212.449C439.576 209.083 436.592 205.54 434.169 203.115C428.397 197.34 420.696 194.662 413.225 193.009C408.685 192.005 404.017 191.442 399.387 191.434C397.079 191.43 394.776 191.714 392.524 192.282C391.807 192.463 390.766 192.628 390.39 193.455C389.968 194.385 390.344 195.164 391.347 195.051Z" fill="black"/>
<path fill-rule="evenodd" clip-rule="evenodd" d="M188.395 253.572C190.726 256.276 193.852 258.178 197.165 258.857C198.892 259.211 201.562 259.745 203.154 258.637C203.959 258.078 204.384 256.985 203.867 255.976C203.252 254.776 201.642 254.821 200.587 254.655C196.688 254.046 193.486 252.861 190.512 249.892C187.783 247.168 185.932 243.688 184.618 239.906C184.006 238.145 183.738 236.352 183.331 234.532C183.1 233.502 182.493 231.095 181.493 232.845C179.928 235.584 181.942 241.144 182.838 243.792C184.078 247.46 185.956 250.743 188.395 253.572Z" fill="black"/>
<path fill-rule="evenodd" clip-rule="evenodd" d="M281.945 154.516C284.164 151.976 285.263 148.61 287.795 146.303C288.267 145.874 290.08 144.97 290.06 144.19C290.032 143.163 288.961 143.34 288.406 143.541C285.671 144.527 280.485 151.267 281.945 154.516Z" fill="black"/>
<path fill-rule="evenodd" clip-rule="evenodd" d="M323.845 191.291C324.753 190.475 326.949 188.38 326.799 186.916C326.659 185.544 325.643 185.89 324.847 186.442C324.505 186.679 323.721 187.678 323.208 187.416C322.686 187.151 323.084 187.243 322.882 186.748C322.6 186.057 323.061 184.17 321.859 184.711C321.145 185.032 320.79 186.912 320.741 187.634C320.617 189.445 321.741 193.183 323.845 191.291Z" fill="black"/>
<path fill-rule="evenodd" clip-rule="evenodd" d="M316.642 197.557C316.796 198.611 318.12 200.631 319.241 199.551C320.138 198.689 319.084 197.7 318.692 196.869C318.437 196.329 318.095 194.409 317.381 194.44C316.266 194.49 316.529 196.79 316.642 197.557Z" fill="black"/>
<path fill-rule="evenodd" clip-rule="evenodd" d="M312.641 185.123C312.92 184.093 311.891 180.103 310.534 181.313C309.426 182.301 310.768 183.336 311.278 184.012C311.526 184.341 312.327 186.285 312.641 185.123Z" fill="black"/>
<path fill-rule="evenodd" clip-rule="evenodd" d="M214.655 74.8746C223.66 78.3931 233.137 79.8537 242.283 82.729C244.572 83.4486 251.273 84.3902 251.985 86.7275C252.401 88.094 251.209 90.2937 250.752 91.4522C249.968 93.437 249.268 95.4165 248.617 97.4657C245.638 106.849 243.008 116.213 239.434 125.337C238.895 126.709 237.923 132.809 236.165 130.415C235.368 129.329 235.252 127.888 233.839 127.066C233.112 126.643 230.933 126.914 231.128 125.507C231.596 125.59 232.065 125.674 232.533 125.757C231.894 124.858 231.559 123.771 230.781 122.971C230.297 122.474 229.637 122.361 229.223 121.764C228.652 120.94 228.768 119.761 228.383 118.853C227.999 117.948 227.269 117.196 226.716 116.396C223.441 111.654 221.151 106.587 218.582 101.464C216.04 96.395 213.112 91.6169 210.858 86.4021C208.476 80.894 205.983 75.4301 203.292 70.0592C204.858 69.8646 206.587 71.3049 207.971 72.0039C210.147 73.1023 212.41 73.9975 214.655 74.8746ZM227.15 131.196C226.711 131 226.324 130.716 225.99 130.344C228.875 127.45 227.826 131.289 227.15 131.196ZM223.674 127.754C222.295 128.649 221.225 129.054 219.817 128.702C219.684 128.669 219.646 128.13 219.41 128.084C219.204 128.045 218.971 128.232 218.792 128.191C218.184 128.052 217.49 128.932 217.042 127.865C218.78 126.659 220.304 124.91 222.3 124.122C225.075 123.027 225.996 126.248 223.674 127.754ZM214.882 123.365C212.968 124.49 211.659 126.223 209.331 126.527C207.147 126.814 204.946 126.149 202.853 125.258C206.545 122.822 210.781 121.37 214.484 118.977C215.689 118.198 217.098 116.645 218.681 116.661C220.439 116.679 221.081 118.286 222.054 119.639C219.657 120.868 217.206 121.998 214.882 123.365ZM199.723 120.755C197.888 121.847 196.215 123.572 193.883 122.075C193.507 121.833 193.375 122.219 193.082 121.228C192.773 120.185 193.414 119.274 194.034 118.7C195.492 117.35 198.116 117.211 199.924 116.561C202.808 115.524 205.589 114.004 208.337 112.661C210.24 111.732 212.065 110.35 214.182 109.92C215.816 109.588 218.23 110.524 216.264 112.264C214.474 113.849 211.251 114.598 209.1 115.674C205.92 117.266 202.778 118.935 199.723 120.755ZM194.354 111.014C194.531 111.122 194.709 111.229 194.887 111.337C194.864 111.337 195.424 110.415 195.627 110.335C196.612 109.95 197.661 109.736 198.66 109.384C200.961 108.573 203.18 107.456 205.324 106.311C207.07 105.378 208.756 104.145 210.747 103.769C212.471 103.444 212.771 103.768 213.463 105.499C209.189 106.711 204.754 107.861 200.881 110.039C198.358 111.456 195.977 114.223 193.467 111.165C193.763 111.115 194.058 111.064 194.354 111.014ZM194.557 102.797C195.908 103.377 198.313 101.094 199.535 100.588C200.861 100.037 202.104 99.5039 203.317 98.7501C204.392 98.0814 207.764 95.3084 209.199 96.6389C211.398 98.6772 205.902 100.724 205.047 101.099C201.462 102.668 197.717 104.221 194.421 106.329C194.467 105.152 194.512 103.975 194.557 102.797ZM196.968 93.0718C197.615 94.1189 204.728 87.5671 205.88 90.536C206.764 92.8136 198.63 96.3801 197.033 96.6114C197.039 95.4453 197.677 94.2217 196.968 93.0718ZM197.477 85.1932C196.907 82.8731 197.19 82.8071 198.788 82.12C200.007 81.596 201.487 80.2863 201.975 82.8536C202.392 85.0518 198.053 87.5343 197.477 85.1932ZM197.926 76.5263C197.925 75.1943 199.371 76.5776 199.595 77.1917C200.191 78.8257 198.927 78.7942 197.824 79.107C197.876 78.25 197.91 77.3886 197.926 76.5263ZM208.866 63.4217C208.544 63.1899 207.243 63.4353 206.836 63.3939C205.835 63.2913 205.711 62.5027 204.826 63.5662C204.749 63.5201 204.671 62.9312 204.601 62.923C204.566 62.9187 203.665 62.8175 203.348 62.7106C202.583 62.4528 201.882 62.1869 201.131 61.8042C200.332 61.3978 199.446 60.7306 198.6 60.4665C198.243 60.3554 197.913 60.1478 197.541 60.1884C196.575 60.294 197.067 60.9144 196.313 61.2791C195.849 61.5039 195.283 60.9785 194.728 61.4317C194.249 61.8229 194.207 62.7657 194.127 63.3426C193.835 65.4419 193.796 67.6234 193.53 69.737C192.17 80.5447 190.073 91.1658 188.884 102.022C188.311 107.252 187.657 112.54 187.805 117.884C187.911 121.738 187.214 127.609 190.465 130.569C192.829 132.72 196.221 132.977 199.045 133.539C203.295 134.386 207.453 135.888 211.724 136.666C216.817 137.594 221.817 138.657 226.883 139.869C229.044 140.386 231.177 141.408 233.314 141.872C234.621 142.156 235.995 140.649 236.81 141.918C237.593 139.689 240.247 140.274 241.427 138.526C242.121 137.498 242.317 135.804 242.796 134.645C243.514 132.905 244.368 131.239 245.119 129.518C248.097 122.682 250.633 115.722 253.046 108.603C255.35 101.804 258.458 95.1167 259.94 87.9696C260.529 85.1323 259.934 82.5005 258.12 80.065C256.796 78.2885 254.191 75.7777 252.306 77.7372C252.658 75.8981 248.709 75.1609 247.578 75.1416C247.561 75.1416 247.763 76.4205 247.466 76.4712C247.572 76.4532 245.709 74.0092 245.171 73.7808C243.571 73.1005 241.643 72.3246 239.99 71.86C238.473 71.4341 237.018 71.4227 235.511 70.8923C233.683 70.2499 231.911 69.3758 230.081 68.7421C228.313 68.1304 226.32 67.3798 224.507 67.1287C222.935 66.9107 221.664 67.141 220.101 66.4964C218.168 65.6985 216.56 65.2413 214.519 64.8927C212.754 64.5911 210.431 64.549 208.866 63.4217Z" fill="black"/>
<path fill-rule="evenodd" clip-rule="evenodd" d="M131.095 273.687C131.137 272.891 131.179 272.094 131.222 271.299C131.982 272.45 132.284 273.044 131.095 273.687ZM132.563 276.893C131.996 277.184 131.548 275.041 131.429 274.68C132.69 275.029 132.079 276.051 132.563 276.893ZM129.637 271.176C130.043 270.696 130.45 270.217 130.857 269.737C130.619 271.396 130.6 270.407 131.219 271.295C130.732 271.619 130.138 271.57 129.637 271.176ZM130.335 283.415C130.935 291.633 126.78 299.427 121.314 304.404C118.172 307.263 114.648 308.755 110.546 309.699C108.964 310.063 106.95 310.031 105.486 310.558C104.359 310.965 104.429 311.004 103.826 312.34C103.123 311.611 103.232 310.929 102.221 310.675C100.959 310.359 100.757 311.201 100.515 312.203C99.5717 311.622 99.1565 311.297 98.1143 311.088C98.1472 311.095 97.2555 311.308 97.2954 311.31C97.1187 311.301 95.94 310.902 95.6 310.865C94.2044 310.711 92.7147 310.907 91.3416 310.507C90.141 310.159 88.7385 308.623 88.053 310.303C87.3005 308.033 84.1838 307.887 82.4754 307.071C79.8059 305.795 77.2618 303.507 75.3567 301.136C73.3251 298.607 72.0599 295.99 70.5808 293.21C69.5473 291.268 66.231 288.976 66.9527 286.516C67.5735 287.286 67.7096 288.216 68.5247 288.842C68.677 287.65 68.563 286.396 68.4084 285.182C68.333 284.587 68.4289 282.752 68.1935 282.282C67.7125 281.319 66.5542 281.588 66.7789 280.178C68.605 281.362 68.7591 278.33 67.408 277.522C67.1179 278.262 67.1645 278.996 67.1855 279.805C64.957 277.333 68.8278 277.235 67.1992 274.894C68.4111 274.252 69.0414 273.682 69.0721 272.139C69.106 270.421 68.5883 270.196 69.4971 268.81C69.8099 268.333 70.8574 267.478 70.8869 266.832C70.9444 265.583 69.738 265.559 70.3482 264.231C70.8774 264.759 72.547 265.628 72.852 264.264C72.9135 263.992 72.2772 263.992 72.5227 263.335C72.8865 262.363 73.33 261.386 74.4449 261.252C72.8487 259.203 78.1509 257.501 79.3455 256.572C80.543 255.641 81.5932 254.955 83.011 254.416C84.4273 253.877 84.3457 253.391 85.2632 252.084C85.8209 253.423 86.0234 253.036 86.996 253.025C87.0777 252.563 87.2828 252.455 87.6109 252.702C87.9118 252.871 88.222 252.903 88.5407 252.798C89.04 252.687 89.573 252.459 90.0904 252.325C91.3047 252.009 92.5122 251.546 93.7041 251.239C93.9908 251.096 94.2376 250.9 94.4464 250.648C94.6337 250.846 94.8217 251.043 95.0087 251.241C95.6637 251.149 95.9955 251.992 96.4563 250.837C97.0783 251.962 97.5284 251.157 98.3274 251.284C99.0562 251.4 99.3127 251.842 100.004 252.006C100.499 252.236 100.925 252.164 101.282 251.792C101.811 252.011 102.343 252.218 102.879 252.414C103.833 252.677 104.866 252.711 105.829 252.86C106.467 252.952 107.105 253.055 107.742 253.169C107.997 253.886 108.378 254.056 108.884 253.681C109.562 254.008 109.702 253.948 110.475 254.613C112.226 256.121 113.712 257.257 115.7 258.485C124.339 263.825 129.601 273.346 130.335 283.415ZM122.241 252.587C118.034 249.251 112.45 245.648 107.977 244.056C105.71 243.248 102.356 241.596 99.8876 241.529C99.3025 241.513 98.7502 241.658 98.1714 241.631C97.7242 241.61 97.3561 241.222 96.8701 241.271C96.5302 241.305 96.7541 242.099 96.3892 242.124C95.6259 242.174 94.9184 241.531 94.2551 241.191C93.846 243.53 92.1276 240.279 91.2998 243.027C88.3397 240.332 84.1327 242.298 81.168 243.317C80.2887 243.619 79.983 244.085 79.2746 244.568C78.6151 245.017 78.5217 244.976 77.7129 245.198C75.6984 245.751 74.0061 246.532 72.4676 248.021C69.8827 250.521 67.8523 253.851 65.5337 256.638C62.9422 259.754 60.8739 263.37 59.3938 267.271C54.0439 281.377 57.1548 298.87 68.8738 310.141C87.4872 328.041 118.159 321.819 130.355 302.633C139.777 287.809 137.606 264.772 122.241 252.587Z" fill="black"/>
<path fill-rule="evenodd" clip-rule="evenodd" d="M367.267 269.013C367.222 269.953 364.087 270.53 363.69 269.55C363.097 268.086 367.345 267.381 367.267 269.013ZM370.313 267.544C372.086 267.208 375.339 267.681 376.744 266.439C378.889 264.544 375.63 263.492 374.092 263.338C372.527 263.181 370.563 264.057 369.33 262.682C368.402 261.648 368.629 257.962 367.165 258.959C365.628 260.006 367.698 264.607 364.468 263.774C362.927 263.377 361.915 258.581 360.543 261.567C360.167 262.384 360.51 263.591 359.888 264.297C359.254 265.018 358.082 264.786 357.254 265.068C355.061 265.815 355.103 268.292 357.662 268.553C358.609 268.65 361.898 268.164 360.481 270.196C359.588 271.477 356.262 270.265 355.769 272.193C355.092 274.841 358.914 273.812 360.159 274.194C362.268 274.84 361.716 277.903 362.481 279.756C363.649 282.587 364.989 281.546 364.739 278.941C364.527 276.73 362.95 273.909 366.093 273.92C371.211 273.938 366.08 282.47 370.051 283.155C372.584 283.591 371.004 277.797 370.848 276.767C370.276 272.962 372.424 273.279 375.292 272.587C378.641 271.779 378.557 268.886 374.802 269.115C373.604 269.188 372.169 269.932 370.942 269.431C370.216 269.135 368.914 267.809 370.313 267.544Z" fill="black"/>
<path fill-rule="evenodd" clip-rule="evenodd" d="M289.778 61.7617C287.89 63.6087 286.002 65.4556 284.115 67.3024C282.777 65.7548 279.908 61.3035 277.789 61.2322C274.359 61.1165 278.07 65.8031 279.002 66.851C279.768 67.7116 281.293 68.9492 281.434 70.1939C281.626 71.8704 279.764 73.0116 278.963 74.1319C276.979 76.9048 278.405 81.1427 281.651 78.2551C283.487 76.6207 285.244 73.0346 287.971 75.7672C289.229 77.0279 293.786 84.773 293.901 78.8301C293.972 75.1508 287.153 73.2829 289.011 69.6604C289.609 68.4947 290.637 68.1191 291.362 67.3407C293.114 65.4607 291.117 63.4713 289.778 61.7617Z" fill="black"/>
<path fill-rule="evenodd" clip-rule="evenodd" d="M454.56 138.947C453.019 138.79 450.983 138.208 449.588 138.999C448.107 139.839 448.041 141.779 447.22 143.167C444.991 146.941 441.722 143.186 439.198 141.336C436.814 139.589 434.623 139.622 432.745 141.644C431.997 142.449 428.911 146.044 430.12 147.443C430.99 148.45 432.58 146.874 433.156 146.437C434.406 145.489 435.577 144.637 437.301 145.014C440.535 145.719 442.593 149.584 446.121 149.277C449.77 148.96 448.704 145.367 450.709 143.332C452.054 141.969 453.724 143.234 455.203 142.468C456.613 141.739 456.518 139.146 454.56 138.947Z" fill="black"/>
<path fill-rule="evenodd" clip-rule="evenodd" d="M431.604 161.155C432.913 161.098 432.856 158.307 433.4 157.44C434.303 156.004 436.416 155.167 438.059 155.889C441.266 157.298 441.918 162.12 445.881 162.301C449.423 162.463 449.409 157.458 451.717 155.556C453.058 154.45 454.628 153.53 453.231 151.324C452.266 149.798 450.887 149.727 449.749 150.741C447.792 152.483 448.469 157.127 445.75 157.984C442.937 158.871 441.152 154.495 439.289 152.896C436.449 150.46 432.391 150.827 431.157 154.277C430.785 155.318 429.112 161.265 431.604 161.155Z" fill="black"/>
<path fill-rule="evenodd" clip-rule="evenodd" d="M358.714 126.47C360.819 127.25 364.169 126.252 365.207 124.249C366.264 122.211 364.07 122.566 362.797 122.98C361.818 123.299 360.139 124.361 360.086 122.333C360.039 120.534 363.075 120.596 362.703 118.711C360.494 118.894 358.257 119.689 357.311 121.902C356.626 123.502 356.743 125.738 358.714 126.47Z" fill="black"/>
</svg>
